<?xml version="1.0" standalone="no"?>
<!DOCTYPE svg PUBLIC "-//W3C//DTD SVG 20010904//EN"
 "http://www.w3.org/TR/2001/REC-SVG-20010904/DTD/svg10.dtd">
<svg version="1.0" xmlns="http://www.w3.org/2000/svg"
 width="1900.000000pt" height="817.000000pt" viewBox="0 0 1900.000000 817.000000"
 preserveAspectRatio="xMidYMid meet">

<g transform="translate(0.000000,817.000000) scale(0.100000,-0.100000)"
fill="#000000" stroke="none">
<path d="M1670 7328 c0 -2 9 -30 19 -63 24 -78 47 -81 72 -10 22 63 23 75 4
75 -8 0 -15 -8 -15 -17 -1 -10 -7 -31 -14 -48 l-14 -30 -12 48 c-7 27 -18 47
-26 47 -8 0 -14 -1 -14 -2z"/>
<path d="M1800 7277 c0 -58 12 -77 46 -77 37 0 54 26 54 81 0 37 -4 49 -15 49
-12 0 -15 -13 -15 -55 0 -48 -2 -55 -20 -55 -18 0 -20 7 -20 55 0 42 -3 55
-15 55 -11 0 -15 -13 -15 -53z"/>
<path d="M1930 7265 l0 -65 35 0 c19 0 35 5 35 10 0 6 -9 10 -20 10 -13 0 -20
7 -20 20 0 13 7 20 20 20 11 0 20 5 20 10 0 6 -9 10 -20 10 -11 0 -20 7 -20
15 0 8 9 15 20 15 11 0 20 5 20 10 0 6 -16 10 -35 10 l-35 0 0 -65z"/>
<path d="M2082 7318 c-21 -21 -13 -47 18 -63 35 -18 30 -39 -6 -32 -16 3 -24
0 -24 -9 0 -14 36 -19 64 -8 26 10 20 53 -9 66 -14 6 -25 18 -25 26 0 10 8 13
25 10 17 -4 25 -1 25 8 0 17 -51 19 -68 2z"/>
<path d="M2180 7265 c0 -53 3 -65 16 -65 13 0 15 8 12 40 -2 22 -1 40 2 40 4
0 16 -18 29 -40 34 -61 51 -53 51 25 0 72 -17 90 -22 23 l-3 -43 -29 43 c-42
61 -56 56 -56 -23z"/>
<path d="M2320 7265 l0 -65 35 0 c19 0 35 5 35 10 0 6 -9 10 -20 10 -13 0 -20
7 -20 20 0 13 7 20 20 20 11 0 20 5 20 10 0 6 -9 10 -20 10 -11 0 -20 7 -20
15 0 8 9 15 20 15 11 0 20 5 20 10 0 6 -16 10 -35 10 l-35 0 0 -65z"/>
<path d="M2431 7274 c-25 -66 -26 -74 -6 -74 8 0 15 7 15 15 0 9 9 15 24 15
13 0 26 -7 30 -15 3 -8 12 -15 20 -15 12 0 10 12 -7 65 -27 84 -46 86 -76 9z
m49 -10 c0 -8 -7 -14 -15 -14 -17 0 -18 2 -9 24 7 18 24 12 24 -10z"/>
<path d="M2540 7265 c0 -51 3 -65 15 -65 10 0 15 10 15 28 l1 27 22 -27 c13
-16 31 -28 40 -28 16 0 14 5 -8 35 l-27 34 22 28 c15 19 18 29 9 32 -7 2 -23
-9 -36 -25 l-23 -29 0 28 c0 17 -5 27 -15 27 -12 0 -15 -14 -15 -65z"/>
<path d="M2660 7265 l0 -65 35 0 c19 0 35 5 35 10 0 6 -9 10 -20 10 -13 0 -20
7 -20 20 0 13 7 20 20 20 11 0 20 5 20 10 0 6 -9 10 -20 10 -11 0 -20 7 -20
15 0 8 9 15 20 15 11 0 20 5 20 10 0 6 -16 10 -35 10 l-35 0 0 -65z"/>
<path d="M2760 7266 c0 -37 4 -66 10 -66 6 0 10 11 10 25 0 14 4 25 9 25 5 0
16 -11 25 -25 9 -14 23 -25 32 -25 13 0 12 5 -5 28 -14 20 -17 32 -10 39 6 6
9 21 7 34 -2 20 -10 25 -40 27 l-38 3 0 -65z m55 24 c0 -8 -8 -16 -17 -18 -13
-2 -18 3 -18 18 0 15 5 20 18 18 9 -2 17 -10 17 -18z"/>
<path d="M2882 7318 c-20 -20 -14 -48 13 -60 14 -6 25 -18 25 -26 0 -10 -8
-13 -25 -10 -17 4 -25 1 -25 -8 0 -14 36 -19 64 -8 26 10 20 53 -9 66 -14 6
-25 18 -25 26 0 10 8 13 25 10 17 -4 25 -1 25 8 0 17 -51 19 -68 2z"/>
<path d="M1355 7230 c19 -21 45 -27 45 -10 0 11 -33 30 -51 30 -8 0 -5 -7 6
-20z"/>
<path d="M1296 7195 c6 -14 4 -17 -9 -12 -8 3 -18 1 -20 -6 -3 -9 -8 -9 -20 1
-13 11 -19 10 -37 -8 -15 -15 -29 -20 -45 -16 -13 3 -26 3 -29 -2 -10 -17 25
-44 63 -49 39 -5 41 -4 41 20 0 23 6 27 63 40 34 9 53 16 43 16 -11 1 -28 9
-38 18 -18 16 -18 16 -12 -2z"/>
<path d="M14665 7190 c-3 -5 -2 -10 4 -10 5 0 12 -19 14 -42 3 -41 4 -41 5 10
2 48 -8 66 -23 42z"/>
<path d="M14746 7184 c-20 -20 -20 -58 0 -74 12 -11 18 -10 31 3 21 21 10 50
-17 42 -12 -4 -20 -2 -20 5 0 7 9 14 20 17 11 3 20 9 20 14 0 14 -17 11 -34
-7z m34 -54 c0 -5 -9 -10 -20 -10 -11 0 -20 5 -20 10 0 6 9 10 20 10 11 0 20
-4 20 -10z"/>
<path d="M14821 7186 c-19 -23 -4 -58 21 -50 14 4 18 2 14 -5 -4 -6 -14 -11
-22 -11 -8 0 -14 -5 -14 -11 0 -22 35 -3 44 24 16 44 -17 84 -43 53z m39 -21
c0 -8 -9 -15 -20 -15 -11 0 -20 7 -20 15 0 8 9 15 20 15 11 0 20 -7 20 -15z"/>
<path d="M14902 7183 c-13 -23 3 -54 23 -47 8 4 15 1 15 -5 0 -6 -9 -11 -20
-11 -11 0 -20 -4 -20 -10 0 -15 26 -12 39 4 18 21 10 80 -11 84 -9 2 -21 -5
-26 -15z m38 -18 c0 -8 -7 -15 -15 -15 -8 0 -15 7 -15 15 0 8 7 15 15 15 8 0
15 -7 15 -15z"/>
<path d="M14991 7186 c-19 -23 -9 -51 17 -49 14 2 21 -1 17 -7 -3 -6 -13 -10
-21 -10 -8 0 -14 -5 -14 -11 0 -22 35 -3 44 24 16 44 -17 84 -43 53z m32 -21
c1 -5 -6 -11 -15 -13 -11 -2 -18 3 -18 13 0 17 30 18 33 0z"/>
<path d="M15293 7190 c-18 -7 -23 -17 -23 -45 0 -40 21 -55 46 -34 23 19 14
55 -14 52 -13 -2 -21 1 -17 7 3 6 13 10 21 10 8 0 14 5 14 10 0 6 -1 10 -2 9
-2 0 -13 -4 -25 -9z m27 -55 c0 -8 -9 -15 -20 -15 -11 0 -20 7 -20 15 0 8 9
15 20 15 11 0 20 -7 20 -15z"/>
<path d="M16070 7196 c0 -2 9 -6 20 -9 11 -3 18 -1 14 4 -5 9 -34 13 -34 5z"/>
<path d="M17333 7193 c9 -2 25 -2 35 0 9 3 1 5 -18 5 -19 0 -27 -2 -17 -5z"/>
<path d="M15111 7116 c1 -28 4 -41 6 -29 3 13 9 20 18 17 7 -3 19 4 25 16 14
26 2 43 -30 45 -18 1 -20 -4 -19 -49z m42 19 c1 -5 -6 -11 -15 -13 -11 -2 -18
3 -18 13 0 17 30 18 33 0z"/>
<path d="M15195 7150 c4 -14 9 -33 12 -42 3 -10 0 -18 -6 -18 -6 0 -11 -5 -11
-12 0 -21 28 13 45 55 9 22 11 36 6 32 -6 -3 -11 -13 -11 -21 0 -22 -19 -17
-31 9 -9 21 -9 21 -4 -3z"/>
<path d="M16158 7163 c7 -3 16 -2 19 1 4 3 -2 6 -13 5 -11 0 -14 -3 -6 -6z"/>
<path d="M16308 7163 c7 -3 16 -2 19 1 4 3 -2 6 -13 5 -11 0 -14 -3 -6 -6z"/>
<path d="M16378 7163 c7 -3 16 -2 19 1 4 3 -2 6 -13 5 -11 0 -14 -3 -6 -6z"/>
<path d="M16458 7163 c7 -3 16 -2 19 1 4 3 -2 6 -13 5 -11 0 -14 -3 -6 -6z"/>
<path d="M17528 7163 c7 -3 16 -2 19 1 4 3 -2 6 -13 5 -11 0 -14 -3 -6 -6z"/>
<path d="M17596 7161 c-3 -4 6 -6 19 -3 14 2 25 6 25 8 0 8 -39 4 -44 -5z"/>
<path d="M17798 7163 c7 -3 16 -2 19 1 4 3 -2 6 -13 5 -11 0 -14 -3 -6 -6z"/>
<path d="M16158 7133 c7 -3 16 -2 19 1 4 3 -2 6 -13 5 -11 0 -14 -3 -6 -6z"/>
<path d="M16378 7133 c7 -3 16 -2 19 1 4 3 -2 6 -13 5 -11 0 -14 -3 -6 -6z"/>
<path d="M17858 7133 c6 -2 18 -2 25 0 6 3 1 5 -13 5 -14 0 -19 -2 -12 -5z"/>
<path d="M1317 7099 c4 -15 2 -18 -11 -13 -11 4 -16 2 -14 -7 2 -9 -4 -13 -15
-11 -12 2 -19 -6 -23 -28 -5 -21 -14 -32 -30 -36 -13 -3 -24 -13 -24 -21 0
-13 9 -14 48 -8 62 9 66 13 48 40 -14 21 -13 24 15 51 33 31 35 39 15 47 -10
4 -12 0 -9 -14z"/>
<path d="M16080 7110 c-23 -7 -23 -8 -3 -9 12 -1 25 4 28 9 3 6 5 10 3 9 -2
-1 -14 -5 -28 -9z"/>
<path d="M17598 7108 c6 -6 18 -8 28 -6 14 3 12 5 -9 10 -19 3 -25 2 -19 -4z"/>
<path d="M16443 7103 c9 -2 25 -2 35 0 9 3 1 5 -18 5 -19 0 -27 -2 -17 -5z"/>
<path d="M17858 7103 c7 -3 16 -2 19 1 4 3 -2 6 -13 5 -11 0 -14 -3 -6 -6z"/>
<path d="M1330 5905 l0 -95 48 0 c77 0 117 44 76 85 -13 12 -14 19 -5 28 17
17 13 55 -8 67 -11 5 -40 10 -65 10 l-46 0 0 -95z m84 56 c10 -16 -5 -41 -25
-41 -14 0 -19 7 -19 25 0 18 5 25 19 25 11 0 22 -4 25 -9z m1 -96 c0 -13 -8
-21 -22 -23 -19 -3 -23 1 -23 23 0 22 4 26 23 23 14 -2 22 -10 22 -23z"/>
<path d="M1511 5931 c-46 -46 -11 -125 52 -119 40 4 50 34 11 33 -33 0 -54 28
-38 53 7 9 23 17 38 17 39 -1 29 29 -11 33 -22 2 -38 -3 -52 -17z"/>
<path d="M1640 5930 c-28 -28 -27 -84 2 -104 23 -17 55 -20 82 -10 29 11 17
29 -21 29 -20 0 -38 6 -40 13 -3 8 9 12 41 12 39 0 46 3 46 20 0 28 -35 60
-65 60 -14 0 -34 -9 -45 -20z m65 -20 c4 -6 -5 -10 -20 -10 -15 0 -24 4 -20
10 3 6 12 10 20 10 8 0 17 -4 20 -10z"/>
<path d="M1850 5880 c0 -63 2 -70 20 -70 15 0 20 7 20 28 l1 27 22 -27 c13
-16 33 -28 46 -28 l23 0 -27 35 -27 36 27 34 26 35 -25 0 c-15 0 -32 -10 -45
-27 l-20 -28 -1 28 c0 20 -5 27 -20 27 -18 0 -20 -7 -20 -70z"/>
<path d="M2000 5849 c0 -92 1 -99 20 -99 16 0 20 7 20 33 0 31 2 33 28 29 52
-7 88 58 61 107 -13 23 -22 26 -72 28 l-57 1 0 -99z m90 56 c10 -12 10 -21 1
-41 -14 -31 -45 -29 -49 4 -7 48 21 69 48 37z"/>
<path d="M2180 5930 c-42 -42 -12 -120 48 -120 46 0 72 25 72 70 0 29 -6 43
-22 54 -31 22 -74 20 -98 -4z m75 -50 c0 -31 -3 -35 -25 -35 -19 0 -26 6 -28
23 -5 36 5 54 30 50 19 -2 23 -9 23 -38z"/>
<path d="M2345 5925 c-30 -30 -31 -54 -4 -89 24 -30 89 -38 89 -11 0 9 -9 15
-25 15 -14 0 -29 8 -35 20 -15 28 4 60 35 60 16 0 25 6 25 15 0 25 -57 19 -85
-10z"/>
<path d="M2475 5925 c-30 -30 -31 -54 -4 -89 24 -30 89 -38 89 -11 0 9 -9 15
-25 15 -14 0 -29 8 -35 20 -15 28 4 60 35 60 16 0 25 6 25 15 0 25 -57 19 -85
-10z"/>
<path d="M2600 5930 c-42 -42 -12 -120 48 -120 46 0 72 25 72 70 0 29 -6 43
-22 54 -31 22 -74 20 -98 -4z m75 -50 c0 -28 -4 -36 -22 -38 -24 -4 -38 25
-28 59 5 14 14 19 28 17 18 -2 22 -10 22 -38z"/>
<path d="M2750 5880 l0 -70 54 0 c63 0 82 15 71 57 -4 16 -8 39 -9 53 -1 23
-5 25 -58 28 l-58 3 0 -71z m80 30 c0 -5 -9 -10 -20 -10 -11 0 -20 5 -20 10 0
6 9 10 20 10 11 0 20 -4 20 -10z m5 -50 c0 -8 -10 -16 -22 -18 -18 -3 -23 2
-23 18 0 16 5 21 23 18 12 -2 22 -10 22 -18z"/>
<path d="M2910 5880 c0 -63 2 -70 19 -70 15 0 21 8 23 33 l3 32 20 -32 c13
-22 27 -33 42 -33 28 0 28 3 2 40 -22 29 -21 38 7 78 16 21 16 22 -8 22 -16 0
-29 -9 -38 -25 -7 -14 -17 -25 -22 -25 -4 0 -8 11 -8 25 0 18 -5 25 -20 25
-18 0 -20 -7 -20 -70z"/>
<path d="M3060 5880 c0 -63 2 -70 20 -70 12 0 30 16 47 43 l28 42 3 -42 c2
-29 8 -43 18 -43 11 0 14 16 14 70 0 62 -2 70 -19 70 -12 0 -29 -16 -45 -42
l-25 -43 -1 43 c0 35 -3 42 -20 42 -18 0 -20 -7 -20 -70z"/>
<path d="M13842 5878 l2 -53 3 48 c4 44 6 47 33 47 27 0 29 -3 33 -47 l3 -48
2 53 2 52 -40 0 -40 0 2 -52z"/>
<path d="M15220 5902 c0 -5 9 -17 20 -27 20 -18 21 -18 42 3 24 24 18 43 -7
22 -12 -10 -19 -10 -27 -2 -14 14 -28 16 -28 4z"/>
<path d="M13950 5886 c-27 -33 18 -72 48 -42 13 13 14 20 6 34 -15 23 -38 26
-54 8z m48 -19 c4 -20 -25 -34 -40 -19 -15 15 -1 44 19 40 10 -2 19 -11 21
-21z"/>
<path d="M14072 5865 c0 -22 2 -32 5 -22 2 9 11 17 18 17 7 0 16 -8 18 -17 3
-10 5 0 5 22 0 22 -2 32 -5 23 -2 -10 -11 -18 -18 -18 -7 0 -16 8 -18 18 -3 9
-5 -1 -5 -23z"/>
<path d="M14156 5891 c-3 -5 3 -7 14 -4 11 3 20 1 20 -5 0 -5 -9 -12 -20 -15
-30 -8 -25 -37 6 -37 23 0 25 3 22 32 -3 32 -29 50 -42 29z m34 -41 c0 -5 -7
-10 -15 -10 -8 0 -15 5 -15 10 0 6 7 10 15 10 8 0 15 -4 15 -10z"/>
<path d="M14220 5891 c0 -6 7 -8 16 -4 9 3 20 0 26 -8 8 -12 9 -11 5 1 -4 17
-47 27 -47 11z"/>
<path d="M14290 5865 c0 -30 3 -35 24 -35 21 0 24 5 24 35 0 30 -3 35 -24 35
-21 0 -24 -5 -24 -35z m40 15 c0 -5 -7 -10 -15 -10 -8 0 -15 5 -15 10 0 6 7
10 15 10 8 0 15 -4 15 -10z m0 -30 c0 -5 -7 -10 -15 -10 -8 0 -15 5 -15 10 0
6 7 10 15 10 8 0 15 -4 15 -10z"/>
<path d="M14383 5893 c23 -6 22 -19 -4 -26 -26 -7 -20 -31 9 -35 19 -3 22 1
22 32 0 31 -3 36 -22 35 -17 -1 -19 -2 -5 -6z m17 -43 c0 -5 -7 -10 -15 -10
-8 0 -15 5 -15 10 0 6 7 10 15 10 8 0 15 -4 15 -10z"/>
<path d="M14442 5865 c0 -22 2 -32 5 -22 2 9 11 17 18 17 7 0 16 -8 18 -17 3
-10 5 0 5 22 0 22 -2 32 -5 23 -2 -10 -11 -18 -18 -18 -7 0 -16 8 -18 18 -3 9
-5 -1 -5 -23z"/>
<path d="M14521 5868 c-1 -44 10 -49 30 -11 l14 26 6 -29 c6 -26 7 -25 7 11
l1 40 -24 -29 -23 -29 -5 29 c-3 25 -4 24 -6 -8z"/>
<path d="M14612 5865 c0 -22 2 -32 5 -22 6 21 19 22 27 2 9 -25 45 -18 52 9 3
14 3 30 -1 35 -9 16 -45 13 -51 -4 -8 -20 -21 -19 -27 3 -3 9 -5 -1 -5 -23z
m73 0 c0 -11 -8 -21 -17 -23 -14 -3 -18 3 -18 23 0 20 4 26 18 23 9 -2 17 -12
17 -23z"/>
<path d="M14260 5852 c0 -7 -10 -13 -22 -13 -19 -1 -20 -2 -4 -6 20 -5 44 12
33 24 -4 3 -7 1 -7 -5z"/>
<path d="M6062 4119 c-34 -13 -56 -44 -94 -126 -23 -51 -39 -74 -55 -78 -24
-6 -53 -56 -53 -93 0 -13 -11 -37 -25 -54 -14 -16 -25 -35 -25 -42 0 -8 -18
-25 -40 -40 -22 -14 -40 -32 -40 -39 0 -13 -107 -90 -167 -121 -17 -9 -38 -13
-46 -10 -8 3 -25 -7 -39 -24 -27 -32 -61 -54 -81 -51 -32 4 -50 -5 -110 -60
-45 -40 -82 -64 -118 -76 -30 -10 -76 -30 -104 -44 l-50 -26 45 -2 c25 -2 79
-7 120 -13 41 -6 95 -13 120 -16 25 -3 56 -8 70 -11 14 -3 112 -7 218 -9 116
-2 228 -10 280 -19 257 -46 262 -47 472 -42 113 3 216 9 230 13 16 4 21 3 15
-3 -28 -27 -238 -63 -366 -63 -105 0 -238 20 -338 50 -35 11 -77 20 -95 20
l-31 -1 25 -14 c42 -25 184 -65 332 -95 95 -19 151 -36 170 -50 l30 -22 22 21
c29 28 44 26 58 -4 15 -33 20 -32 54 12 l28 36 15 -31 c8 -18 17 -32 20 -32 3
0 17 16 30 35 24 36 41 38 41 4 0 -26 18 -24 42 6 23 30 38 32 38 7 0 -33 13
-33 41 0 l28 33 1 -32 c0 -39 12 -43 28 -8 6 14 16 25 22 25 5 0 10 -11 10
-25 0 -32 17 -32 32 0 13 29 28 24 28 -11 0 -28 6 -29 49 -8 36 18 42 16 120
-32 61 -37 45 -17 -33 42 -36 27 -66 52 -66 56 0 20 59 41 176 63 149 28 244
54 244 67 0 5 4 7 10 3 5 -3 18 3 29 14 11 11 22 17 25 13 3 -3 6 2 6 11 0 9
-4 19 -10 22 -5 3 -10 12 -10 18 0 7 4 6 10 -3 7 -11 9 -4 6 25 -3 22 -8 69
-11 105 -3 36 -10 114 -15 173 -10 107 -3 205 21 268 15 38 -4 77 -46 94 -44
19 -96 19 -169 0 -38 -10 -68 -12 -89 -7 -29 7 -33 13 -39 55 -3 26 -15 62
-25 80 -21 36 -93 77 -136 77 -41 0 -86 -51 -127 -144 -27 -60 -38 -76 -55
-76 -15 0 -26 -11 -38 -38 -9 -21 -17 -45 -17 -53 0 -9 -12 -31 -26 -50 l-26
-34 6 45 c3 25 9 61 12 81 5 31 2 39 -23 59 -25 20 -36 22 -108 18 -52 -3 -97
-12 -127 -26 -32 -14 -59 -19 -82 -15 -33 5 -35 7 -46 68 -7 35 -20 77 -30 93
-30 48 -104 79 -148 61z m-30 -121 c-5 -21 -4 -22 11 -9 18 14 22 5 9 -17 -5
-7 -16 -10 -25 -7 -15 6 -57 -26 -57 -43 0 -12 -39 -89 -40 -78 0 5 10 36 22
70 20 55 58 106 79 106 4 0 5 -10 1 -22z m802 -10 c-3 -13 -10 -30 -15 -38 -7
-13 -8 -13 -9 0 0 27 12 60 22 60 5 0 6 -10 2 -22z m29 2 c-6 -22 -23 -38 -23
-21 0 17 12 41 20 41 5 0 6 -9 3 -20z m21 -23 c-3 -8 -12 -18 -20 -21 -11 -4
-11 0 2 20 18 26 28 27 18 1z m-89 -19 c-3 -18 -8 -37 -9 -43 -4 -18 -35 -70
-36 -59 0 15 41 134 47 134 3 0 2 -15 -2 -32z m-778 -38 c10 -14 10 -26 2 -47
-10 -25 -12 -26 -18 -9 -7 18 -8 18 -15 -5 -4 -14 -9 -19 -13 -11 -2 6 -9 10
-14 6 -15 -9 -10 13 6 30 9 8 22 13 30 10 17 -7 21 11 5 21 -12 7 -13 25 -2
25 4 0 13 -9 19 -20z m823 -9 c12 -23 13 -41 2 -41 -4 0 -13 14 -19 30 -12 33
0 41 17 11z m-24 -48 c-10 -10 -19 5 -10 18 6 11 8 11 12 0 2 -7 1 -15 -2 -18z
m-35 -6 c-10 -9 -11 -8 -5 6 3 10 9 15 12 12 3 -3 0 -11 -7 -18z m-1031 -327
c0 -5 -5 -10 -11 -10 -5 0 -7 5 -4 10 3 6 8 10 11 10 2 0 4 -4 4 -10z m401
-93 c-13 -13 -15 1 -4 30 7 17 8 17 11 -1 2 -10 -1 -23 -7 -29z m-539 -23 c9
-18 9 -18 -6 0 -20 25 -20 11 -1 -44 18 -50 18 -50 6 -50 -9 0 -41 83 -41 106
0 19 31 10 42 -12z m-202 -4 c0 -5 -7 -10 -16 -10 -8 0 -12 5 -9 10 3 6 10 10
16 10 5 0 9 -4 9 -10z m1015 -27 l18 -28 -21 19 c-12 11 -22 23 -22 28 0 14 7
9 25 -19z m-10 -48 c32 -74 27 -101 -5 -31 -32 72 -40 96 -31 96 5 0 21 -29
36 -65z m-220 45 c-3 -5 -10 -10 -16 -10 -5 0 -9 5 -9 10 0 6 7 10 16 10 8 0
12 -4 9 -10z"/>
<path d="M13725 4053 c25 -37 32 -100 11 -100 -8 0 -13 4 -10 8 2 4 -1 11 -7
14 -5 4 -8 13 -6 19 6 15 -23 17 -40 4 -7 -6 -32 -7 -55 -4 -33 5 -38 4 -20
-4 12 -5 22 -14 22 -21 0 -6 7 -9 15 -5 20 7 19 -1 -5 -31 -11 -14 -20 -32
-20 -39 0 -21 20 -27 38 -11 32 27 91 43 112 29 30 -19 40 -15 40 17 0 49 -12
91 -26 91 -7 0 -16 5 -20 12 -5 8 -2 9 9 5 22 -8 22 7 0 24 -11 10 -14 10 -9
2 4 -7 2 -13 -3 -13 -6 0 -11 4 -11 9 0 5 -7 12 -16 15 -15 6 -14 3 1 -21z"/>
<path d="M12925 4060 c-3 -5 -1 -10 4 -10 6 0 11 5 11 10 0 6 -2 10 -4 10 -3
0 -8 -4 -11 -10z"/>
<path d="M9784 4035 c3 -11 7 -50 11 -87 4 -37 11 -71 17 -74 16 -10 4 103
-16 146 -9 19 -14 26 -12 15z"/>
<path d="M12906 4023 c4 -13 1 -29 -4 -36 -15 -17 26 -100 51 -105 17 -3 18 2
12 45 -14 108 -14 111 -40 115 -22 5 -24 2 -19 -19z"/>
<path d="M9750 3993 c0 -26 5 -55 10 -63 7 -11 10 1 10 42 0 31 -4 60 -10 63
-6 4 -10 -12 -10 -42z"/>
<path d="M13665 4029 c-4 -6 -5 -12 -2 -15 2 -3 7 2 10 11 7 17 1 20 -8 4z"/>
<path d="M16420 3995 c-11 -13 -10 -18 6 -29 16 -12 20 -12 32 3 12 14 13 10
8 -28 -2 -24 2 -64 10 -90 7 -25 13 -55 13 -66 -1 -11 -7 -2 -14 20 -9 31 -13
35 -17 20 -2 -11 -1 -31 4 -44 5 -13 6 -33 2 -45 -9 -28 -82 -126 -94 -126
-16 0 -11 50 5 57 27 10 65 98 64 145 l-1 43 -15 -60 c-7 -33 -23 -69 -33 -80
-23 -23 -26 -10 -6 31 8 16 17 40 21 53 12 39 -12 15 -26 -27 l-13 -37 -6 35
c-8 47 -2 60 27 60 18 0 24 4 19 15 -3 8 -1 15 4 15 6 0 10 11 10 25 0 29 -32
49 -66 41 -17 -5 -26 -2 -30 9 -4 9 -22 22 -42 30 -35 15 -35 15 -88 -26 l-54
-41 -75 7 c-66 6 -73 8 -60 22 21 21 19 26 -9 19 -19 -5 -25 -1 -29 16 -6 20
-10 17 -48 -30 -24 -29 -49 -52 -56 -52 -7 0 -18 -11 -23 -24 -5 -13 -14 -27
-20 -31 -6 -4 -15 -18 -20 -31 -5 -13 -15 -24 -22 -24 -7 0 -33 -25 -58 -56
-29 -35 -73 -72 -125 -104 -44 -27 -99 -66 -122 -88 -23 -21 -72 -51 -110 -67
-37 -16 -78 -38 -89 -50 -28 -27 -60 -45 -79 -45 -37 0 -152 -65 -197 -111
-80 -82 -78 -83 138 -76 204 7 218 5 382 -56 66 -24 87 -29 101 -20 13 8 39 9
87 2 38 -5 148 -9 244 -9 96 0 193 -4 215 -9 57 -12 183 -47 232 -65 41 -15
43 -14 190 38 158 57 380 145 429 171 34 18 74 21 57 4 -6 -6 -73 -37 -149
-70 -76 -33 -147 -67 -157 -77 -18 -16 -67 -33 -159 -54 -31 -7 -48 -16 -48
-25 0 -9 6 -13 15 -9 26 10 0 -28 -46 -68 -43 -36 -75 -40 -43 -5 29 32 10 31
-21 -1 -33 -35 -51 -39 -35 -9 14 26 7 35 -10 14 -19 -23 -43 -20 -30 4 16 30
12 33 -21 16 -36 -19 -53 -10 -24 12 19 15 19 15 -5 10 -14 -3 -35 -9 -47 -12
-14 -5 -23 -3 -23 4 0 6 12 14 26 17 16 4 22 10 16 16 -6 6 -17 6 -28 0 -29
-14 -74 -23 -74 -14 0 4 26 16 58 25 l57 17 -69 -6 c-38 -2 -78 -10 -89 -15
-13 -8 -22 -8 -30 0 -7 7 6 12 42 17 28 4 51 10 51 15 0 4 -15 6 -32 4 -80
-10 -150 -13 -143 -7 3 4 32 10 63 13 46 5 35 6 -53 8 -60 1 -121 4 -135 7
-17 5 -22 3 -15 -3 6 -6 57 -25 115 -42 211 -66 265 -83 285 -91 101 -43 179
-48 289 -19 22 6 58 15 79 20 79 19 123 32 160 45 50 19 56 18 49 -8 -9 -38
-50 -93 -84 -113 -54 -32 -122 -41 -358 -49 -176 -6 -252 2 -460 46 -52 10
-105 20 -117 21 -11 1 -19 5 -17 9 2 3 -12 6 -31 5 -19 -1 -35 -4 -35 -9 0 -7
16 -12 105 -35 29 -7 29 -7 -19 -18 -56 -12 -66 -24 -34 -44 26 -16 578 -17
753 0 106 9 293 36 304 44 3 1 82 13 176 25 155 20 245 43 245 62 0 5 6 8 13
8 6 0 23 12 37 26 19 21 24 35 22 71 -1 25 -8 58 -16 74 -10 19 -12 47 -9 87
4 38 2 62 -5 66 -6 4 -35 -5 -64 -20 -49 -25 -52 -25 -34 -5 11 12 31 27 45
34 43 20 40 57 -24 302 -16 58 -24 113 -21 132 6 38 -10 99 -28 110 -11 7 -11
21 -1 78 16 100 12 115 -36 115 -22 0 -39 -4 -39 -10 0 -5 4 -10 10 -10 17 0
43 -49 33 -63 -6 -6 -16 -54 -23 -105 -8 -58 -20 -102 -31 -115 -16 -21 -17
-19 -12 68 4 61 10 93 19 98 15 9 17 61 4 92 -5 11 -9 15 -9 9 -2 -24 -44 -23
-73 2 -16 13 -37 24 -46 24 -10 0 -39 -21 -65 -46 -47 -44 -49 -45 -125 -50
-57 -4 -91 0 -129 12 l-51 18 25 32 c13 18 23 40 21 49 -3 16 -34 -11 -139
-124 -38 -41 -53 -51 -61 -43 -9 9 -9 23 0 57 15 58 15 108 0 123 -17 17 -73
15 -88 -3z m-320 -135 c0 -19 -29 -22 -52 -6 -22 16 -22 16 15 16 20 0 37 -5
37 -10z m-148 -32 c16 16 28 15 28 -3 0 -8 8 -15 17 -15 12 0 14 -3 6 -11 -8
-8 -32 -9 -75 -3 -34 4 -55 9 -45 12 9 2 17 8 17 13 0 6 -5 7 -12 3 -7 -4 -8
-3 -4 4 5 8 13 8 32 0 18 -9 27 -9 36 0z m928 2 c0 -5 -11 -10 -24 -10 -14 0
-28 5 -31 10 -4 6 7 10 24 10 17 0 31 -4 31 -10z m-226 -25 c-4 -9 0 -15 9
-15 9 0 17 8 19 18 3 14 7 13 29 -10 15 -16 34 -28 43 -28 9 0 16 -4 16 -9 0
-12 -140 -2 -157 11 -10 8 -7 15 10 29 27 22 38 24 31 4z m132 0 c10 -8 15
-14 9 -14 -5 0 -19 6 -29 14 -11 8 -15 15 -10 15 6 0 19 -7 30 -15z m-816 -79
c0 -24 -15 -26 -28 -5 -11 16 -9 19 8 19 11 0 20 -6 20 -14z m-73 -11 c23 -16
48 -84 35 -97 -4 -3 -45 4 -91 18 -46 13 -90 24 -97 24 -16 0 -19 16 -4 25 6
4 8 11 5 16 -17 27 116 39 152 14z m710 -20 c36 -11 61 -27 87 -56 30 -35 44
-59 33 -59 -1 0 -34 7 -72 15 -39 8 -88 15 -110 15 -22 1 -55 9 -73 18 l-33
18 23 21 c22 21 62 41 84 42 6 1 33 -6 61 -14z m162 -7 c0 -7 -4 -22 -8 -32
-7 -17 -9 -16 -30 12 l-22 32 30 0 c19 0 31 -5 30 -12z m417 -74 c-10 -13 -21
-22 -26 -19 -10 6 -8 21 10 64 l14 34 9 -27 c7 -20 5 -33 -7 -52z m-1381 -14
c3 -5 -1 -10 -9 -10 -8 0 -18 5 -21 10 -3 6 1 10 9 10 8 0 18 -4 21 -10z m-93
-20 c28 -26 17 -35 -23 -21 -18 6 -46 11 -62 11 -37 0 -30 10 15 20 48 12 47
12 70 -10z m1415 -2 c-3 -8 -6 -5 -6 6 -1 11 2 17 5 13 3 -3 4 -12 1 -19z
m-659 -34 c54 -26 50 -37 -9 -29 -30 4 -63 12 -74 18 -20 11 -17 13 46 26 3 0
20 -6 37 -15z m73 -11 c13 -16 12 -17 -3 -4 -10 7 -18 15 -18 17 0 8 8 3 21
-13z m-913 -29 c24 -16 30 -44 9 -44 -7 0 -22 7 -33 15 -12 8 -24 12 -27 8 -4
-3 -9 2 -13 11 -3 9 -18 17 -33 17 -26 1 -26 1 4 9 34 9 60 4 93 -16z m62 5
c0 -6 -4 -7 -10 -4 -5 3 -10 11 -10 16 0 6 5 7 10 4 6 -3 10 -11 10 -16z m695
-38 c22 -10 47 -26 55 -36 14 -17 12 -18 -35 -9 -28 4 -72 7 -99 6 -35 -1 -55
3 -69 15 -18 17 -18 18 10 30 40 17 92 15 138 -6z m115 -17 c0 -12 -4 -12 -20
-2 -11 7 -20 16 -20 19 0 4 9 5 20 2 11 -3 20 -12 20 -19z m-250 -124 c0 -5
-4 -10 -10 -10 -5 0 -10 5 -10 10 0 6 5 10 10 10 6 0 10 -4 10 -10z m-404
-119 c-8 -12 17 -21 62 -22 31 -1 27 -3 -21 -12 -65 -11 -91 0 -67 28 13 16
35 21 26 6z m1503 -128 c8 -16 4 -18 -35 -18 -52 0 -56 8 -11 23 17 5 33 10
34 11 1 1 7 -7 12 -16z m-697 -98 c-44 -50 -97 -95 -91 -77 6 17 121 133 127
128 2 -3 -14 -26 -36 -51z m182 0 c-15 -23 -34 -33 -34 -18 0 10 32 43 42 43
5 0 1 -11 -8 -25z m-70 -20 c-15 -23 -34 -33 -34 -18 0 10 32 43 42 43 5 0 1
-11 -8 -25z m-80 -20 c-25 -19 -40 -19 -24 0 7 8 20 15 28 15 13 0 12 -3 -4
-15z"/>
<path d="M15783 3663 c9 -2 23 -2 30 0 6 3 -1 5 -18 5 -16 0 -22 -2 -12 -5z"/>
<path d="M12846 3988 c5 -8 2 -9 -9 -5 -11 4 -17 1 -17 -7 0 -15 -51 -62 -63
-58 -5 1 -7 -10 -5 -25 4 -37 41 -46 91 -20 20 10 37 24 38 31 0 6 2 24 3 40
1 15 -4 30 -11 33 -7 3 -10 9 -7 14 3 5 -2 9 -11 9 -10 0 -13 -5 -9 -12z"/>
<path d="M10520 3881 c0 -46 5 -83 11 -86 16 -10 21 0 30 54 9 59 -1 105 -24
109 -15 3 -17 -7 -17 -77z"/>
<path d="M13395 3900 c-3 -5 3 -10 14 -10 12 0 21 5 21 10 0 6 -6 10 -14 10
-8 0 -18 -4 -21 -10z"/>
<path d="M12574 3874 c-9 -13 -24 -24 -34 -24 -10 0 -33 -18 -50 -40 -27 -34
-29 -40 -14 -40 13 0 7 -8 -19 -25 -20 -14 -37 -30 -37 -36 0 -5 -11 -14 -24
-20 -28 -13 -31 -49 -4 -49 9 0 19 4 22 9 3 4 29 11 57 15 39 5 55 3 68 -8 9
-8 22 -12 29 -7 9 5 3 15 -18 36 -16 16 -30 24 -30 18 0 -13 -68 -38 -77 -29
-4 3 1 14 10 23 8 10 15 23 15 28 -1 6 11 17 25 25 22 12 31 13 64 1 21 -8 44
-22 51 -32 7 -11 20 -19 28 -19 21 0 8 18 -30 41 -30 18 -30 19 -6 19 14 -1
36 -7 49 -14 21 -12 28 -12 48 1 21 14 27 14 63 -2 46 -21 57 -16 40 15 -9 17
-14 19 -20 10 -7 -11 -21 -8 -68 13 -33 15 -66 27 -73 28 -8 0 -3 5 10 10 18
7 35 5 63 -6 22 -8 44 -13 49 -9 5 3 15 1 22 -4 7 -5 31 -12 55 -16 33 -5 42
-3 42 9 0 18 -37 40 -42 25 -2 -7 -27 -5 -73 4 -39 8 -91 18 -118 21 -51 7
-54 20 -7 30 43 9 37 23 -10 23 -32 1 -44 -4 -56 -24z m96 -101 c13 -14 12
-15 -10 -10 -14 4 -51 9 -83 13 -31 4 -54 10 -52 14 8 13 129 -1 145 -17z"/>
<path d="M9405 3870 c-15 -17 -16 -20 -3 -20 9 0 18 9 21 20 3 11 4 20 3 20
-2 0 -11 -9 -21 -20z"/>
<path d="M9643 3857 c19 -52 19 -65 -2 -77 -12 -6 -25 -9 -29 -6 -13 8 -74
-33 -67 -44 17 -28 141 7 154 44 23 61 23 66 0 66 -12 0 -31 8 -42 18 -20 16
-20 16 -14 -1z"/>
<path d="M10381 3848 c-1 -15 10 -39 24 -55 30 -34 36 -9 6 28 -10 13 -21 31
-24 39 -3 9 -6 4 -6 -12z"/>
<path d="M13273 3848 c-25 -12 -31 -28 -10 -28 6 -1 0 -8 -15 -16 -52 -28 -19
-48 37 -22 22 10 30 8 55 -10 16 -12 34 -22 39 -22 5 0 23 -11 39 -25 17 -14
36 -23 44 -20 8 3 24 -6 36 -20 27 -31 44 -32 40 -2 -2 12 -9 21 -17 19 -7 -1
-37 13 -67 33 -29 20 -82 49 -116 65 l-63 29 52 -3 c29 -1 56 -5 59 -9 4 -4
26 -7 50 -7 69 0 105 -25 47 -32 l-28 -4 27 -13 c23 -12 29 -11 43 3 21 20 24
20 55 -4 14 -11 33 -20 44 -20 15 0 17 6 14 30 -4 29 -4 30 34 24 30 -5 39 -3
44 11 5 12 1 23 -11 31 -22 16 -59 19 -50 4 4 -7 -8 -8 -37 -4 l-43 6 25 -21
c20 -16 22 -22 13 -32 -10 -10 -26 -6 -80 19 -104 49 -208 65 -260 40z"/>
<path d="M10293 3828 c-35 -40 -37 -48 -8 -48 18 0 29 6 32 20 3 11 10 17 15
14 6 -4 8 2 6 11 -5 27 -22 28 -45 3z"/>
<path d="M3406 3802 c-6 -6 82 -62 98 -62 5 0 -1 11 -13 24 -25 26 -75 49 -85
38z"/>
<path d="M2780 3765 c7 -9 15 -13 17 -11 7 7 -7 26 -19 26 -6 0 -6 -6 2 -15z"/>
<path d="M13223 3745 c-60 -27 -68 -39 -20 -31 24 5 17 -1 -28 -22 -49 -23
-56 -29 -40 -36 16 -6 17 -9 5 -16 -12 -8 -9 -10 10 -11 14 0 -4 -7 -40 -15
-87 -18 -116 -32 -102 -46 8 -8 16 -8 28 2 20 17 38 22 87 21 21 0 49 4 62 9
20 8 28 5 45 -17 14 -18 24 -23 31 -16 12 12 -10 32 -66 62 -22 12 -32 21 -22
21 10 0 20 7 23 15 4 10 13 13 26 9 13 -4 24 1 33 13 20 25 19 44 -2 37 -10
-4 -3 3 15 15 59 38 34 42 -45 6z"/>
<path d="M13790 3760 c0 -5 5 -10 10 -10 6 0 10 5 10 10 0 6 -4 10 -10 10 -5
0 -10 -4 -10 -10z"/>
<path d="M12525 3730 c3 -5 11 -10 16 -10 6 0 7 5 4 10 -3 6 -11 10 -16 10 -6
0 -7 -4 -4 -10z"/>
<path d="M13680 3730 c0 -5 7 -10 15 -10 8 0 15 5 15 10 0 6 -7 10 -15 10 -8
0 -15 -4 -15 -10z"/>
<path d="M12850 3720 c0 -5 5 -10 10 -10 6 0 10 5 10 10 0 6 -4 10 -10 10 -5
0 -10 -4 -10 -10z"/>
<path d="M13347 3719 c11 -10 8 -16 -15 -26 -21 -10 -22 -12 -4 -7 13 3 33 -1
46 -9 33 -22 52 -6 24 20 -26 23 -72 43 -51 22z"/>
<path d="M2910 3705 c-8 -9 -8 -15 -2 -15 12 0 26 19 19 26 -2 2 -10 -2 -17
-11z"/>
<path d="M3586 3695 c-3 -8 -1 -15 4 -15 13 0 22 18 11 24 -5 3 -11 -1 -15 -9z"/>
<path d="M12592 3696 c7 -8 15 -12 17 -11 5 6 -10 25 -20 25 -5 0 -4 -6 3 -14z"/>
<path d="M3338 3693 c6 -2 18 -2 25 0 6 3 1 5 -13 5 -14 0 -19 -2 -12 -5z"/>
<path d="M3620 3680 c-9 -6 -10 -10 -3 -10 6 0 15 5 18 10 8 12 4 12 -15 0z"/>
<path d="M12675 3680 c-7 -12 2 -30 16 -30 12 0 12 27 0 35 -5 3 -12 1 -16 -5z"/>
<path d="M3547 3652 c-10 -10 -17 -24 -17 -30 0 -7 -4 -12 -9 -12 -11 0 -21
-49 -14 -67 8 -21 23 -4 23 27 0 16 6 33 14 37 7 4 15 20 18 36 6 32 6 32 -15
9z"/>
<path d="M13440 3642 c0 -5 7 -17 15 -28 14 -18 14 -18 15 9 0 17 -5 27 -15
27 -8 0 -15 -4 -15 -8z"/>
<path d="M13300 3629 c28 -5 48 -5 54 1 7 7 -9 10 -44 9 l-55 -1 45 -9z"/>
<path d="M12610 3620 c-12 -7 -12 -12 -3 -21 10 -10 14 -9 19 5 8 22 2 27 -16
16z"/>
<path d="M12283 3603 c-29 -9 -53 -19 -53 -24 0 -13 19 -21 33 -12 22 13 109
15 134 2 32 -17 43 -2 14 20 -18 14 -21 20 -10 24 32 13 -70 4 -118 -10z"/>
<path d="M12421 3615 c8 -7 78 -9 85 -2 4 4 -14 7 -41 7 -27 0 -46 -2 -44 -5z"/>
<path d="M13636 3594 c-3 -9 -3 -20 0 -26 3 -5 3 -63 -1 -129 -6 -102 -10
-119 -24 -119 -9 0 -22 5 -28 11 -8 8 -24 5 -56 -10 -25 -12 -52 -21 -59 -21
-18 0 -45 -33 -40 -48 5 -16 29 -15 35 1 2 7 8 8 13 3 5 -5 4 -11 -3 -13 -7
-3 -23 -13 -35 -23 -19 -15 -20 -20 -9 -34 11 -13 11 -16 0 -17 -8 0 -5 -4 6
-9 32 -14 82 -11 95 5 16 19 30 19 30 0 0 -9 6 -12 17 -8 11 4 14 3 9 -5 -4
-8 0 -12 11 -11 12 0 28 20 47 60 20 40 35 59 48 59 22 0 22 -1 3 -48 l-15
-37 28 35 c15 19 42 50 60 70 l33 35 -16 -39 c-8 -22 -13 -41 -11 -43 8 -9 65
78 72 110 9 42 15 52 24 37 5 -8 16 5 32 39 18 36 21 51 12 51 -8 0 -11 6 -8
15 4 8 2 15 -4 15 -5 0 -26 16 -45 35 -41 41 -60 45 -52 12 4 -15 1 -28 -9
-36 -9 -8 -16 -20 -16 -27 0 -8 -6 -14 -13 -14 -8 0 -14 12 -14 30 0 29 -27
70 -46 70 -5 0 -22 9 -37 20 -25 18 -29 18 -34 4z m109 -94 c3 -5 1 -10 -4
-10 -6 0 -11 5 -11 10 0 6 2 10 4 10 3 0 8 -4 11 -10z m-35 -83 c0 -5 -4 -5
-10 -2 -5 3 -10 14 -10 23 0 15 2 15 10 2 5 -8 10 -19 10 -23z m-46 -23 c3 -8
2 -12 -3 -9 -5 3 -12 -3 -14 -12 -3 -11 -5 -8 -6 10 -1 29 13 37 23 11z"/>
<path d="M12837 3564 c-10 -10 5 -34 16 -27 6 3 7 1 3 -6 -4 -6 -12 -9 -17 -6
-5 4 -9 -19 -9 -52 l1 -58 18 23 c20 23 38 31 25 11 -5 -9 1 -10 22 -3 34 10
126 10 204 -1 30 -4 53 -5 50 -2 -3 4 -25 9 -49 12 -24 3 -47 7 -51 10 -5 3
-44 6 -88 7 l-80 1 9 24 c5 13 9 28 9 33 0 12 -56 41 -63 34z"/>
<path d="M13292 3532 c2 -9 11 -18 22 -20 12 -3 17 1 14 14 -1 9 -11 18 -21
20 -12 2 -17 -3 -15 -14z"/>
<path d="M12948 3529 c-10 -5 -18 -17 -18 -25 0 -12 4 -12 25 2 38 25 32 46
-7 23z"/>
<path d="M13100 3527 c0 -8 11 -19 25 -25 14 -6 25 -7 25 -2 0 5 10 10 22 12
12 2 23 9 26 16 2 8 -11 12 -47 12 -36 0 -51 -4 -51 -13z"/>
<path d="M12185 3519 c-11 -17 1 -21 15 -4 8 9 8 15 2 15 -6 0 -14 -5 -17 -11z"/>
<path d="M12123 3483 c-29 -11 -9 -20 45 -21 31 0 78 -4 105 -7 32 -5 47 -3
47 4 0 7 -9 9 -24 5 -13 -3 -33 -1 -44 5 -22 11 -110 21 -129 14z"/>
<path d="M3862 3429 c-27 -20 -50 -29 -62 -26 -14 3 -20 0 -20 -11 0 -8 -15
-28 -32 -43 -18 -15 -30 -30 -27 -33 3 -3 18 5 34 19 37 35 42 26 10 -20 -14
-21 -25 -43 -25 -49 1 -13 30 24 30 37 0 5 9 7 20 4 13 -3 20 0 20 10 0 8 23
44 51 79 28 35 49 64 47 64 -2 0 -23 -14 -46 -31z"/>
<path d="M13475 3430 c-3 -5 -1 -10 4 -10 6 0 11 5 11 10 0 6 -2 10 -4 10 -3
0 -8 -4 -11 -10z"/>
<path d="M3213 3423 c-13 -2 -23 -9 -23 -14 0 -14 24 -11 46 6 19 15 16 16
-23 8z"/>
<path d="M12610 3419 c0 -5 5 -7 10 -4 6 3 10 8 10 11 0 2 -4 4 -10 4 -5 0
-10 -5 -10 -11z"/>
<path d="M12720 3393 c0 -6 6 -13 13 -16 6 -2 9 -7 5 -11 -3 -4 -16 -2 -29 4
-19 11 -21 10 -16 -3 4 -11 -1 -17 -18 -19 -19 -2 -22 -7 -15 -17 7 -13 14
-12 45 5 46 24 51 32 31 52 -9 9 -16 11 -16 5z"/>
<path d="M14031 3329 c0 -9 -13 -22 -28 -30 -16 -7 -50 -27 -78 -43 -27 -16
-88 -46 -134 -67 -92 -41 -91 -39 -136 -169 l-22 -65 41 3 c84 6 208 23 229
32 12 5 39 11 60 15 20 3 37 11 37 16 0 6 -9 8 -20 4 -11 -3 -50 -8 -88 -10
-38 -2 -86 -6 -108 -10 -38 -6 -38 -5 -14 8 14 8 49 20 78 27 38 9 52 17 52
29 0 12 17 22 59 35 32 10 68 24 80 32 19 14 20 17 7 42 -16 31 -22 89 -12
114 4 9 6 25 3 35 -4 14 -5 14 -6 2z"/>
<path d="M12580 3311 c0 -11 -5 -23 -12 -27 -7 -5 -9 0 -6 14 4 15 2 19 -8 15
-8 -3 -14 -11 -14 -19 0 -7 -10 -20 -22 -28 -34 -24 -7 -19 61 10 55 24 59 28
44 40 -26 19 -43 17 -43 -5z"/>
<path d="M4943 3188 c-19 -9 -38 -36 -31 -43 2 -2 26 10 53 26 41 24 46 29 25
28 -14 0 -35 -5 -47 -11z"/>
<path d="M13660 3155 c-10 -12 -10 -15 2 -15 8 0 15 7 15 15 0 8 -1 15 -2 15
-2 0 -8 -7 -15 -15z"/>
<path d="M15270 3106 c0 -9 40 -13 46 -5 3 5 -6 9 -20 9 -14 0 -26 -2 -26 -4z"/>
<path d="M9175 3093 c-11 -3 -24 -10 -30 -15 -7 -7 -2 -8 15 -3 52 15 64 30
15 18z"/>
<path d="M3392 3019 c-19 -17 -32 -32 -30 -34 4 -5 29 15 52 43 26 31 17 27
-22 -9z"/>
<path d="M9230 3027 c0 -8 7 -28 16 -46 21 -42 11 -77 -29 -98 -48 -26 -252
-23 -426 6 -74 12 -147 19 -163 16 -94 -21 125 -59 337 -58 150 0 411 17 500
32 l40 6 -50 18 c-98 36 -148 62 -186 99 -21 21 -39 32 -39 25z"/>
<path d="M11784 3022 c-6 -4 -13 -15 -17 -24 -5 -14 -12 -15 -39 -7 -47 13
-53 11 -35 -9 10 -10 15 -21 12 -24 -10 -9 19 -26 79 -46 l59 -20 -39 -5 c-22
-4 -72 -9 -111 -13 -240 -21 171 -42 497 -25 124 7 251 16 284 20 48 7 71 4
130 -15 69 -21 70 -22 36 -28 -19 -3 -66 -8 -105 -11 -144 -12 -177 -17 -166
-28 16 -16 519 -21 755 -7 249 15 303 30 101 29 -144 -2 -250 12 -296 37 -15
7 -62 19 -105 25 -59 8 -93 20 -136 45 -62 37 -83 42 -92 19 -7 -21 -35 -19
-93 6 l-48 20 23 -23 22 -24 -48 -17 c-68 -25 -142 -21 -142 7 0 12 -54 13
-144 3 -45 -6 -52 -3 -82 27 -31 31 -35 32 -96 29 -52 -4 -73 0 -120 22 -32
15 -58 31 -58 36 0 11 -11 11 -26 1z"/>
<path d="M2690 3010 c-13 -8 -12 -10 3 -10 9 0 17 5 17 10 0 12 -1 12 -20 0z"/>
<path d="M3470 3000 c-14 -10 -22 -21 -19 -24 3 -3 16 5 29 19 28 30 24 32
-10 5z"/>
<path d="M2218 3003 c7 -3 16 -2 19 1 4 3 -2 6 -13 5 -11 0 -14 -3 -6 -6z"/>
<path d="M3533 2971 c-11 -11 -23 -18 -25 -16 -2 2 -4 -5 -5 -15 -1 -11 -14
-36 -30 -57 l-28 -37 -3 27 c-2 15 -8 27 -13 27 -5 0 -9 7 -9 15 0 8 -5 15
-11 15 -6 0 -8 7 -5 18 7 16 6 16 -10 0 -16 -16 -11 -44 7 -33 5 4 9 2 9 -3 0
-6 -7 -13 -16 -16 -9 -4 -14 -14 -12 -24 4 -13 -2 -17 -26 -18 -29 -1 -29 -1
-8 9 27 12 28 23 5 36 -10 6 -12 11 -5 11 6 0 12 5 12 11 0 6 -14 -1 -31 -15
-17 -14 -36 -26 -42 -26 -6 0 -2 -7 9 -15 10 -8 15 -15 9 -15 -5 0 -5 -4 2 -8
6 -4 -13 -8 -43 -9 -40 -2 -53 0 -48 9 5 8 1 9 -12 4 -28 -11 -204 -17 -204
-7 0 5 -35 9 -79 9 -43 0 -95 5 -115 12 -19 6 -40 9 -45 6 -5 -4 -31 2 -58 12
-26 9 -59 17 -73 16 -14 -1 -59 2 -100 7 -94 12 -189 19 -259 20 -29 0 -63 5
-74 10 -10 6 -17 7 -14 2 3 -5 -19 -9 -49 -10 -29 -1 -56 3 -59 8 -4 5 -15 9
-26 9 -10 0 -19 6 -19 14 0 11 -9 12 -46 4 -31 -7 -53 -7 -68 0 -21 11 -71 16
-116 12 -14 -1 -42 -3 -62 -3 -21 -1 -38 -5 -38 -9 0 -10 52 -36 114 -58 l51
-17 -60 -7 c-33 -4 -82 -10 -110 -13 l-50 -6 35 -9 c20 -5 210 -3 435 3 263 8
412 8 435 2 35 -10 35 -10 -25 -17 -211 -25 -239 -35 -148 -57 138 -33 734
-12 1143 41 124 16 297 38 385 50 189 24 231 35 214 56 -6 8 -8 14 -3 15 5 0
0 4 -11 8 -11 5 -25 4 -32 -1 -7 -6 -22 -8 -33 -5 -11 3 -20 0 -20 -6 0 -8 -4
-7 -9 2 -5 7 -11 9 -14 4 -4 -6 -24 -9 -47 -8 -22 1 -40 -1 -40 -4 0 -4 -9 -7
-20 -7 -11 0 -20 6 -20 14 0 7 -5 10 -10 7 -6 -4 -8 -11 -5 -16 4 -5 -4 -10
-17 -10 -13 -1 -35 -2 -51 -3 -21 -2 -26 2 -22 15 3 10 -1 19 -10 23 -12 4
-14 0 -10 -22 5 -25 5 -25 -5 -4 -8 19 -12 21 -29 10 -11 -7 -17 -18 -13 -27
3 -9 2 -13 -2 -9 -5 4 -19 3 -32 -2 -15 -6 -24 -6 -24 0 0 6 5 10 11 10 5 0 8
4 4 9 -3 5 -1 13 5 16 22 14 -10 33 -50 30 -27 -2 -43 2 -48 11 -7 12 -12 11
-29 -5z m97 -51 c0 -4 -6 -10 -14 -13 -12 -5 -14 2 -7 31 2 7 21 -10 21 -18z
m-70 -20 c-6 -11 -13 -20 -15 -20 -3 0 -5 9 -5 20 0 11 7 20 15 20 13 0 14 -4
5 -20z m-50 -10 c0 -5 -4 -10 -10 -10 -5 0 -10 5 -10 10 0 6 5 10 10 10 6 0
10 -4 10 -10z"/>
<path d="M4993 2969 c2 -24 34 -49 86 -65 34 -11 35 -11 11 -17 -14 -3 -47 -9
-74 -12 -37 -5 -46 -9 -37 -18 18 -18 652 -16 751 2 91 16 79 16 170 -6 l75
-19 -90 -13 c-115 -16 -146 -24 -148 -36 -1 -6 26 -14 58 -18 85 -12 560 -1
750 17 340 32 675 71 675 78 0 5 -10 6 -23 3 -12 -3 -85 -8 -162 -10 -161 -5
-235 -11 -279 -23 -50 -14 -433 -9 -447 5 -7 7 -24 9 -40 6 -16 -3 -35 0 -43
6 -8 7 -23 12 -33 11 -36 -4 -74 0 -70 8 3 4 -20 8 -50 9 -30 1 -68 7 -84 13
-16 7 -53 13 -82 13 -35 1 -56 6 -64 17 -10 13 -13 13 -25 -3 -9 -12 -29 -19
-56 -21 -23 -1 -44 -5 -47 -8 -4 -3 -20 -2 -37 3 -19 5 -36 5 -43 -1 -7 -6
-21 -4 -40 6 -19 9 -32 11 -38 5 -7 -7 -17 -7 -29 0 -11 6 -26 8 -34 5 -8 -3
-14 -1 -14 3 0 5 -9 7 -20 4 -12 -3 -49 0 -83 7 -133 26 -154 30 -217 45 -36
9 -88 18 -117 20 -48 5 -52 3 -50 -16z"/>
<path d="M15598 2983 c7 -3 16 -2 19 1 4 3 -2 6 -13 5 -11 0 -14 -3 -6 -6z"/>
<path d="M2750 2970 c-9 -6 -10 -10 -3 -10 6 0 15 5 18 10 8 12 4 12 -15 0z"/>
<path d="M2850 2971 c-33 -6 -33 -7 -11 -13 14 -4 30 -3 36 2 7 6 16 6 20 2 5
-4 5 -1 1 6 -4 6 -8 11 -9 11 -1 -1 -18 -5 -37 -8z"/>
<path d="M3216 2962 c-2 -4 -1 -14 4 -22 7 -11 9 -9 7 8 -1 24 -3 26 -11 14z"/>
<path d="M3695 2959 c-4 -6 -5 -12 -2 -15 2 -3 7 2 10 11 7 17 1 20 -8 4z"/>
<path d="M15030 2958 c0 -12 59 -36 108 -44 31 -5 39 -10 35 -23 -12 -46 76
-58 313 -42 187 13 234 19 234 31 0 5 -26 9 -57 9 -32 0 -71 0 -88 1 -16 0
-53 0 -80 0 -28 0 -82 7 -120 15 -39 9 -95 20 -125 24 -30 5 -73 14 -96 20
-54 14 -124 19 -124 9z"/>
<path d="M2780 2950 c0 -5 5 -10 11 -10 5 0 7 5 4 10 -3 6 -8 10 -11 10 -2 0
-4 -4 -4 -10z"/>
<path d="M3113 2945 c-3 -9 -3 -18 -1 -21 3 -3 8 4 11 16 6 23 -1 27 -10 5z"/>
<path d="M2896 2941 c-3 -4 -18 -7 -33 -5 -28 4 -28 4 -3 -5 37 -13 47 -13 47
4 0 17 -3 19 -11 6z"/>
<path d="M13828 2943 c7 -3 16 -2 19 1 4 3 -2 6 -13 5 -11 0 -14 -3 -6 -6z"/>
<path d="M13620 2929 c0 -7 16 -8 48 -3 64 9 66 14 4 14 -30 0 -52 -4 -52 -11z"/>
<path d="M3033 2913 c9 -2 23 -2 30 0 6 3 -1 5 -18 5 -16 0 -22 -2 -12 -5z"/>
<path d="M3130 2909 c0 -5 5 -7 10 -4 6 3 10 8 10 11 0 2 -4 4 -10 4 -5 0 -10
-5 -10 -11z"/>
<path d="M3058 2894 c-16 -8 -28 -17 -28 -19 0 -11 19 -4 41 15 29 23 24 25
-13 4z"/>
<path d="M3213 2890 c-3 -11 -9 -20 -13 -20 -5 0 -16 -3 -26 -7 -13 -5 -15 -3
-9 7 5 9 3 11 -6 6 -8 -3 -22 -9 -31 -12 -10 -4 -18 -10 -18 -15 0 -11 14 -12
24 -1 11 10 67 11 97 0 16 -5 34 -5 50 2 21 9 20 9 -10 4 -23 -4 -31 -3 -27 5
9 14 -2 51 -16 51 -5 0 -12 -9 -15 -20z"/>
<path d="M13860 2898 c-41 -3 -113 -9 -160 -13 -78 -5 -126 -19 -220 -64 -21
-9 -16 -10 35 -6 33 3 92 10 130 16 39 6 146 20 239 32 110 14 171 26 174 35
4 13 -57 13 -198 0z"/>
<path d="M2911 2896 c11 -9 69 -15 64 -6 -3 6 -20 10 -37 10 -17 0 -29 -2 -27
-4z"/>
<path d="M3085 2880 c-7 -12 12 -12 40 0 18 8 17 9 -7 9 -15 1 -30 -3 -33 -9z"/>
<path d="M7380 2880 c0 -5 4 -10 9 -10 6 0 13 5 16 10 3 6 -1 10 -9 10 -9 0
-16 -4 -16 -10z"/>
<path d="M7320 2870 c0 -13 11 -13 30 0 12 8 11 10 -7 10 -13 0 -23 -4 -23
-10z"/>
<path d="M9451 2865 c-99 -19 -106 -23 -40 -24 32 -1 164 -12 295 -26 227 -24
468 -35 481 -21 4 3 -14 6 -39 6 -24 0 -94 7 -154 15 -60 9 -131 18 -159 21
-27 3 -61 7 -75 9 -25 5 -123 19 -195 28 -22 3 -73 -1 -114 -8z"/>
<path d="M7268 2863 c6 -2 18 -2 25 0 6 3 1 5 -13 5 -14 0 -19 -2 -12 -5z"/>
<path d="M3048 2853 c12 -2 30 -2 40 0 9 3 -1 5 -23 4 -22 0 -30 -2 -17 -4z"/>
<path d="M13393 2803 c9 -2 23 -2 30 0 6 3 -1 5 -18 5 -16 0 -22 -2 -12 -5z"/>
<path d="M1513 2070 c0 -30 2 -44 4 -32 l5 24 26 -24 26 -23 -26 35 c-14 20
-28 44 -31 55 -2 11 -5 -5 -4 -35z"/>
<path d="M1544 2098 l-19 -23 23 19 c21 18 27 26 19 26 -2 0 -12 -10 -23 -22z"/>
<path d="M2270 2110 c0 -5 4 -10 9 -10 5 0 11 -9 14 -20 4 -15 0 -20 -14 -20
-13 0 -17 5 -13 18 5 14 4 14 -4 2 -5 -8 -13 -26 -16 -40 -6 -21 -5 -22 4 -7
6 9 20 17 30 17 10 0 24 -8 29 -17 15 -26 13 -13 -5 40 -14 42 -34 63 -34 37z"/>
<path d="M2390 2106 c0 -8 -10 -16 -22 -18 -18 -2 -23 -10 -23 -33 0 -26 4
-30 28 -31 26 -1 27 1 27 47 0 27 -2 49 -5 49 -3 0 -5 -6 -5 -14z m-5 -51 c0
-11 -8 -21 -17 -23 -14 -3 -18 3 -18 23 0 20 4 26 18 23 9 -2 17 -12 17 -23z"/>
<path d="M2510 2106 c0 -8 -10 -16 -22 -18 -18 -2 -23 -10 -23 -33 0 -26 4
-30 28 -31 26 -1 27 1 27 47 0 27 -2 49 -5 49 -3 0 -5 -6 -5 -14z m-5 -51 c0
-11 -8 -21 -17 -23 -14 -3 -18 3 -18 23 0 20 4 26 18 23 9 -2 17 -12 17 -23z"/>
<path d="M2724 2081 c1 -47 20 -69 50 -58 12 5 16 18 14 54 l-1 48 -6 -45 c-5
-36 -10 -45 -26 -45 -16 0 -21 9 -26 45 l-7 45 2 -44z"/>
<path d="M2823 2070 c0 -30 2 -43 4 -27 2 15 2 39 0 55 -2 15 -4 2 -4 -28z"/>
<path d="M3032 2073 c-2 -46 1 -53 17 -53 10 0 24 7 31 15 15 18 4 55 -18 55
-13 0 -13 -2 3 -14 21 -15 15 -46 -9 -46 -11 0 -16 14 -19 48 l-3 47 -2 -52z"/>
<path d="M4833 2070 c0 -30 2 -44 4 -32 l5 24 26 -24 26 -23 -26 35 c-14 20
-28 44 -31 55 -2 11 -5 -5 -4 -35z"/>
<path d="M4864 2098 l-19 -23 23 19 c12 11 22 21 22 23 0 8 -8 2 -26 -19z"/>
<path d="M5570 2071 c0 -43 3 -51 19 -51 24 0 45 25 35 42 -5 7 -8 22 -9 33 0
13 -8 21 -22 23 -21 3 -23 0 -23 -47z m40 24 c0 -8 -7 -15 -15 -15 -8 0 -15 7
-15 15 0 8 7 15 15 15 8 0 15 -7 15 -15z m5 -45 c0 -8 -8 -16 -17 -18 -13 -2
-18 3 -18 18 0 15 5 20 18 18 9 -2 17 -10 17 -18z"/>
<path d="M5653 2070 c0 -30 2 -43 4 -27 2 15 2 39 0 55 -2 15 -4 2 -4 -28z"/>
<path d="M5831 2070 c0 -34 3 -50 8 -41 6 9 11 10 15 2 4 -6 12 -11 18 -11 6
0 4 8 -5 18 -15 17 -15 19 0 35 10 10 12 17 6 17 -7 0 -15 -6 -20 -12 -5 -9
-10 -3 -14 17 -5 23 -7 18 -8 -25z"/>
<path d="M5940 2070 c0 -48 1 -50 28 -49 23 2 24 2 5 6 -27 5 -31 39 -5 46 16
4 16 5 0 6 -26 2 -22 29 5 34 19 4 18 4 -5 6 -27 1 -28 -1 -28 -49z"/>
<path d="M6060 2106 c0 -8 -10 -16 -22 -18 -18 -2 -23 -10 -23 -33 0 -26 4
-30 28 -31 26 -1 27 1 27 47 0 27 -2 49 -5 49 -3 0 -5 -6 -5 -14z m-5 -51 c0
-11 -8 -21 -17 -23 -14 -3 -18 3 -18 23 0 20 4 26 18 23 9 -2 17 -12 17 -23z"/>
<path d="M8153 2070 c0 -30 2 -44 4 -32 l5 24 26 -24 26 -23 -26 35 c-14 20
-28 44 -31 55 -2 11 -5 -5 -4 -35z"/>
<path d="M8184 2098 l-19 -23 23 19 c12 11 22 21 22 23 0 8 -8 2 -26 -19z"/>
<path d="M8891 2068 c1 -29 4 -43 6 -31 2 12 12 24 21 26 15 4 15 5 0 6 -27 2
-23 39 5 44 19 4 18 4 -5 6 -27 1 -28 0 -27 -51z"/>
<path d="M9341 2068 c1 -29 4 -43 6 -30 5 28 19 28 33 1 7 -11 14 -18 17 -16
3 3 1 12 -3 19 -5 7 -9 27 -9 43 0 23 -5 31 -22 33 -22 3 -23 0 -22 -50z m39
22 c0 -11 -7 -20 -15 -20 -8 0 -15 9 -15 20 0 11 7 20 15 20 8 0 15 -9 15 -20z"/>
<path d="M9510 2106 c0 -8 -10 -16 -21 -18 -52 -7 -45 -68 7 -68 22 0 24 4 24
50 0 28 -2 50 -5 50 -3 0 -5 -6 -5 -14z m-6 -35 c9 -14 -4 -41 -19 -41 -18 0
-28 17 -21 35 6 17 32 20 40 6z"/>
<path d="M11473 2070 c0 -30 2 -44 4 -32 l5 24 26 -24 26 -23 -26 35 c-14 20
-28 44 -31 55 -2 11 -5 -5 -4 -35z"/>
<path d="M11504 2098 l-19 -23 23 19 c21 18 27 26 19 26 -2 0 -12 -10 -23 -22z"/>
<path d="M12211 2068 c2 -52 2 -53 8 -13 l7 40 23 -37 c13 -21 27 -38 32 -38
5 0 8 24 7 53 -1 43 -2 45 -5 15 -5 -47 -15 -48 -39 -3 -10 19 -22 35 -26 35
-5 0 -7 -24 -7 -52z"/>
<path d="M12352 2070 c0 -32 2 -47 7 -37 6 17 8 17 20 3 7 -9 18 -16 24 -16 6
0 1 7 -11 16 -23 16 -23 17 -5 38 18 21 18 21 -4 3 -21 -19 -22 -19 -26 15 -2
21 -4 13 -5 -22z"/>
<path d="M12560 2110 c0 -5 4 -10 9 -10 5 0 11 -9 14 -20 4 -15 0 -20 -14 -20
-13 0 -17 5 -13 18 5 14 4 14 -4 2 -5 -8 -13 -26 -16 -40 -6 -21 -5 -22 4 -7
6 9 20 17 30 17 10 0 24 -8 29 -17 15 -26 13 -13 -5 40 -14 42 -34 63 -34 37z"/>
<path d="M12761 2068 c1 -29 4 -43 6 -31 2 12 12 24 21 26 15 4 15 5 0 6 -27
2 -23 39 5 44 19 4 18 4 -5 6 -27 1 -28 0 -27 -51z"/>
<path d="M13154 2104 c-15 -13 -16 -15 -2 -10 14 4 18 -3 21 -37 3 -40 4 -39
5 11 1 28 1 52 -1 52 -2 0 -12 -7 -23 -16z"/>
<path d="M14793 2070 c0 -30 2 -44 4 -32 l5 24 26 -24 26 -23 -26 35 c-14 20
-28 44 -31 55 -2 11 -5 -5 -4 -35z"/>
<path d="M14824 2098 l-19 -23 23 19 c21 18 27 26 19 26 -2 0 -12 -10 -23 -22z"/>
<path d="M15531 2068 c2 -52 2 -53 8 -13 l7 40 23 -37 c13 -21 27 -38 32 -38
5 0 8 24 7 53 -1 43 -2 45 -5 15 -5 -47 -15 -48 -39 -3 -10 19 -22 35 -26 35
-5 0 -7 -24 -7 -52z"/>
<path d="M15672 2070 c0 -32 2 -47 7 -37 6 17 8 17 20 3 7 -9 18 -16 24 -16 6
0 1 7 -11 16 -23 16 -23 17 -5 38 18 21 18 21 -4 3 -21 -19 -22 -19 -26 15 -2
21 -4 13 -5 -22z"/>
<path d="M15880 2110 c0 -5 4 -10 9 -10 5 0 11 -9 14 -20 4 -15 0 -20 -14 -20
-13 0 -17 5 -13 18 5 14 4 14 -4 2 -5 -8 -13 -26 -16 -40 -6 -21 -5 -22 4 -7
6 9 20 17 30 17 10 0 24 -8 29 -17 15 -26 13 -13 -5 40 -14 42 -34 63 -34 37z"/>
<path d="M16082 2070 c0 -47 2 -50 7 -20 l6 35 14 -34 14 -33 21 38 21 39 6
-40 c6 -39 6 -39 8 13 0 28 -3 52 -7 52 -5 0 -16 -16 -25 -36 -16 -33 -37 -39
-37 -10 0 7 -7 21 -15 32 -13 17 -14 14 -13 -36z"/>
<path d="M16386 2111 c-3 -5 3 -7 14 -4 27 7 27 -32 0 -47 -32 -17 -25 -40 13
-39 30 2 30 2 5 6 -33 5 -35 14 -7 31 13 8 19 21 17 35 -3 23 -32 35 -42 18z"/>
<path d="M16478 2113 c26 -5 26 -2 6 -48 -8 -20 -14 -39 -11 -41 2 -2 13 19
24 46 l21 50 -31 -1 c-24 -1 -26 -3 -9 -6z"/>
<path d="M16541 2101 c-23 -42 -1 -91 34 -77 23 8 17 90 -7 94 -9 2 -21 -6
-27 -17z m39 -31 c0 -29 -4 -40 -15 -40 -20 0 -29 23 -21 55 11 42 36 31 36
-15z"/>
<path d="M2852 2094 c-7 -8 -8 -14 -2 -14 5 0 10 -13 10 -30 0 -16 3 -30 8
-30 7 0 8 78 0 85 -1 1 -9 -3 -16 -11z"/>
<path d="M3338 2097 c-7 -21 6 -70 20 -73 7 -1 8 0 2 3 -12 6 -13 50 -1 55 5
2 3 8 -4 15 -10 9 -14 9 -17 0z"/>
<path d="M6128 2097 c-7 -21 6 -70 20 -73 7 -1 8 0 2 3 -12 6 -13 50 -1 55 5
2 3 8 -4 15 -10 9 -14 9 -17 0z"/>
<path d="M9038 2097 c-7 -21 6 -70 20 -73 7 -1 8 0 2 3 -12 6 -13 50 -1 55 5
2 3 8 -4 15 -10 9 -14 9 -17 0z"/>
<path d="M1591 2036 c1 -28 3 -43 6 -34 2 9 14 18 26 20 17 2 22 10 22 33 0
26 -4 30 -27 31 -27 1 -28 -1 -27 -50z m49 19 c0 -25 -23 -35 -35 -15 -10 16
2 40 20 40 9 0 15 -9 15 -25z"/>
<path d="M1680 2076 c-27 -33 18 -72 48 -42 13 13 14 20 6 34 -15 23 -38 26
-54 8z m48 -19 c4 -20 -25 -34 -40 -19 -15 15 -1 44 19 40 10 -2 19 -11 21
-21z"/>
<path d="M1764 2076 c-11 -28 1 -51 26 -53 22 -1 22 -1 3 4 -16 3 -23 12 -23
28 0 17 7 25 23 28 l22 4 -23 2 c-12 0 -25 -5 -28 -13z"/>
<path d="M1829 2074 c-16 -19 -1 -48 27 -51 15 -2 14 -1 -3 7 -13 5 -23 16
-23 25 0 9 10 20 23 25 15 6 17 9 6 9 -9 1 -22 -6 -30 -15z"/>
<path d="M1894 2076 c-11 -29 0 -51 26 -51 21 0 25 5 25 30 0 24 -5 31 -23 33
-13 2 -24 -3 -28 -12z m46 -21 c0 -25 -23 -35 -35 -15 -10 16 2 40 20 40 9 0
15 -9 15 -25z"/>
<path d="M1980 2055 c0 -32 3 -36 23 -33 17 2 22 10 22 33 0 23 -5 31 -22 33
-20 3 -23 -1 -23 -33z m40 15 c0 -5 -7 -10 -15 -10 -8 0 -15 5 -15 10 0 6 7
10 15 10 8 0 15 -4 15 -10z m0 -30 c0 -5 -7 -10 -15 -10 -8 0 -15 5 -15 10 0
6 7 10 15 10 8 0 15 -4 15 -10z"/>
<path d="M2060 2055 c0 -26 3 -35 9 -26 6 9 11 10 15 2 4 -6 12 -11 18 -11 6
0 4 8 -5 18 -15 17 -15 19 0 35 10 10 12 17 6 17 -7 0 -15 -5 -19 -11 -4 -8
-9 -7 -15 2 -6 9 -9 0 -9 -26z"/>
<path d="M2153 2064 c-13 -14 -23 -31 -23 -37 0 -7 9 -1 19 12 l19 25 5 -25
c3 -17 5 -13 6 14 0 20 0 37 -1 37 -2 0 -13 -12 -25 -26z"/>
<path d="M2433 2055 c0 -22 2 -30 4 -17 2 12 2 30 0 40 -3 9 -5 -1 -4 -23z"/>
<path d="M2563 2083 c23 -6 22 -19 -4 -26 -26 -7 -20 -31 9 -35 19 -3 22 1 22
32 0 31 -3 36 -22 35 -17 -1 -19 -2 -5 -6z m17 -43 c0 -5 -7 -10 -15 -10 -8 0
-15 5 -15 10 0 6 7 10 15 10 8 0 15 -4 15 -10z"/>
<path d="M2620 2075 c0 -9 7 -18 15 -21 20 -8 19 -21 -2 -27 -16 -4 -16 -5 -1
-6 24 -2 34 20 15 34 -22 16 -21 22 1 28 13 4 11 5 -5 6 -15 1 -23 -5 -23 -14z"/>
<path d="M2901 2053 c1 -27 3 -31 6 -13 2 14 12 31 21 38 14 11 13 12 -6 12
-19 0 -22 -5 -21 -37z"/>
<path d="M2956 2081 c-3 -5 3 -7 14 -4 11 3 20 1 20 -5 0 -5 -9 -12 -20 -15
-30 -8 -25 -37 6 -37 23 0 25 3 22 32 -3 32 -29 50 -42 29z m34 -41 c0 -5 -7
-10 -15 -10 -8 0 -15 5 -15 10 0 6 7 10 15 10 8 0 15 -4 15 -10z"/>
<path d="M3114 2076 c-11 -29 0 -51 26 -51 21 0 25 5 25 30 0 24 -5 31 -23 33
-13 2 -24 -3 -28 -12z m46 -21 c0 -18 -5 -25 -20 -25 -15 0 -20 7 -20 25 0 18
5 25 20 25 15 0 20 -7 20 -25z"/>
<path d="M3200 2076 c-27 -33 18 -72 48 -42 13 13 14 20 6 34 -15 23 -38 26
-54 8z m48 -19 c4 -20 -25 -34 -40 -19 -15 15 -1 44 19 40 10 -2 19 -11 21
-21z"/>
<path d="M3280 2075 c0 -9 7 -18 15 -21 20 -8 19 -21 -2 -27 -16 -4 -16 -5 -1
-6 24 -2 34 20 15 34 -22 16 -21 22 1 28 13 4 11 5 -5 6 -15 1 -23 -5 -23 -14z"/>
<path d="M4911 2036 c1 -28 3 -43 6 -34 2 9 14 18 26 20 17 2 22 10 22 33 0
26 -4 30 -27 31 -27 1 -28 -1 -27 -50z m49 19 c0 -25 -23 -35 -35 -15 -10 16
2 40 20 40 9 0 15 -9 15 -25z"/>
<path d="M5000 2076 c-27 -33 18 -72 48 -42 13 13 14 20 6 34 -15 23 -38 26
-54 8z m48 -19 c4 -20 -25 -34 -40 -19 -15 15 -1 44 19 40 10 -2 19 -11 21
-21z"/>
<path d="M5084 2076 c-11 -28 1 -51 26 -53 22 -1 22 -1 3 4 -16 3 -23 12 -23
28 0 17 7 25 23 28 l22 4 -23 2 c-12 0 -25 -5 -28 -13z"/>
<path d="M5149 2074 c-16 -19 -1 -48 27 -51 15 -2 14 -1 -3 7 -13 5 -23 16
-23 25 0 9 10 20 23 25 15 6 17 9 6 9 -9 1 -22 -6 -30 -15z"/>
<path d="M5214 2076 c-11 -29 0 -51 26 -51 21 0 25 5 25 30 0 24 -5 31 -23 33
-13 2 -24 -3 -28 -12z m46 -21 c0 -25 -23 -35 -35 -15 -10 16 2 40 20 40 9 0
15 -9 15 -25z"/>
<path d="M5300 2055 c0 -32 3 -36 23 -33 17 2 22 10 22 33 0 23 -5 31 -22 33
-20 3 -23 -1 -23 -33z m40 15 c0 -5 -7 -10 -15 -10 -8 0 -15 5 -15 10 0 6 7
10 15 10 8 0 15 -4 15 -10z m0 -30 c0 -5 -7 -10 -15 -10 -8 0 -15 5 -15 10 0
6 7 10 15 10 8 0 15 -4 15 -10z"/>
<path d="M5380 2055 c0 -26 3 -35 9 -26 6 9 11 10 15 2 4 -6 12 -11 18 -11 6
0 4 8 -5 18 -15 17 -15 19 0 35 10 10 12 17 6 17 -7 0 -15 -5 -19 -11 -4 -8
-9 -7 -15 2 -6 9 -9 0 -9 -26z"/>
<path d="M5473 2064 c-13 -14 -23 -31 -23 -37 0 -7 9 -1 19 12 l19 25 5 -25
c3 -17 5 -13 6 14 0 20 0 37 -1 37 -2 0 -13 -12 -25 -26z"/>
<path d="M5703 2083 c23 -6 22 -19 -4 -26 -26 -7 -20 -31 9 -35 19 -3 22 1 22
32 0 31 -3 36 -22 35 -17 -1 -19 -2 -5 -6z m17 -43 c0 -5 -7 -10 -15 -10 -8 0
-15 5 -15 10 0 6 7 10 15 10 8 0 15 -4 15 -10z"/>
<path d="M5764 2076 c-11 -28 1 -51 26 -53 22 -1 22 -1 3 4 -16 3 -23 12 -23
28 0 17 7 25 23 28 l22 4 -23 2 c-12 0 -25 -5 -28 -13z"/>
<path d="M6103 2055 c0 -22 2 -30 4 -17 2 12 2 30 0 40 -3 9 -5 -1 -4 -23z"/>
<path d="M6183 2055 c0 -22 2 -30 4 -17 2 12 2 30 0 40 -3 9 -5 -1 -4 -23z"/>
<path d="M6214 2076 c-11 -29 0 -51 26 -51 21 0 25 5 25 30 0 24 -5 31 -23 33
-13 2 -24 -3 -28 -12z m46 -21 c0 -25 -23 -35 -35 -15 -10 16 2 40 20 40 9 0
15 -9 15 -25z"/>
<path d="M6302 2053 c1 -37 1 -37 5 -5 3 18 10 32 18 32 8 0 15 -14 18 -32 4
-32 4 -32 5 5 2 33 0 37 -23 37 -23 0 -25 -4 -23 -37z"/>
<path d="M8231 2036 c1 -28 3 -43 6 -34 2 9 14 18 26 20 17 2 22 10 22 33 0
26 -4 30 -27 31 -27 1 -28 -1 -27 -50z m49 19 c0 -25 -23 -35 -35 -15 -10 16
2 40 20 40 9 0 15 -9 15 -25z"/>
<path d="M8320 2076 c-27 -33 18 -72 48 -42 13 13 14 20 6 34 -15 23 -38 26
-54 8z m48 -19 c4 -20 -25 -34 -40 -19 -15 15 -1 44 19 40 10 -2 19 -11 21
-21z"/>
<path d="M8404 2076 c-11 -28 1 -51 26 -53 22 -1 22 -1 3 4 -16 3 -23 12 -23
28 0 17 7 25 23 28 l22 4 -23 2 c-12 0 -25 -5 -28 -13z"/>
<path d="M8469 2074 c-16 -19 -1 -48 27 -51 15 -2 14 -1 -3 7 -13 5 -23 16
-23 25 0 9 10 20 23 25 15 6 17 9 6 9 -9 1 -22 -6 -30 -15z"/>
<path d="M8534 2076 c-11 -29 0 -51 26 -51 21 0 25 5 25 30 0 24 -5 31 -23 33
-13 2 -24 -3 -28 -12z m46 -21 c0 -25 -23 -35 -35 -15 -10 16 2 40 20 40 9 0
15 -9 15 -25z"/>
<path d="M8620 2055 c0 -32 3 -36 23 -33 17 2 22 10 22 33 0 23 -5 31 -22 33
-20 3 -23 -1 -23 -33z m40 15 c0 -5 -7 -10 -15 -10 -8 0 -15 5 -15 10 0 6 7
10 15 10 8 0 15 -4 15 -10z m0 -30 c0 -5 -7 -10 -15 -10 -8 0 -15 5 -15 10 0
6 7 10 15 10 8 0 15 -4 15 -10z"/>
<path d="M8700 2055 c0 -26 3 -35 9 -26 6 9 11 10 15 2 4 -6 12 -11 18 -11 6
0 4 8 -5 18 -15 17 -15 19 0 35 10 10 12 17 6 17 -7 0 -15 -5 -19 -11 -4 -8
-9 -7 -15 2 -6 9 -9 0 -9 -26z"/>
<path d="M8793 2064 c-13 -14 -23 -31 -23 -37 0 -7 9 -1 19 12 l19 25 5 -25
c3 -17 5 -13 6 14 0 20 0 37 -1 37 -2 0 -13 -12 -25 -26z"/>
<path d="M8963 2058 c2 -28 6 -34 30 -36 25 -3 27 -1 26 35 -1 36 -2 37 -8 8
-9 -42 -38 -45 -45 -6 l-6 31 3 -32z"/>
<path d="M9093 2058 c2 -28 6 -34 30 -36 25 -3 27 -1 26 35 -1 36 -2 37 -8 8
-9 -42 -38 -45 -45 -6 l-6 31 3 -32z"/>
<path d="M9171 2053 c1 -27 3 -31 6 -13 2 14 12 31 21 38 14 11 13 12 -6 12
-19 0 -22 -5 -21 -37z"/>
<path d="M9224 2076 c-11 -28 1 -51 26 -53 22 -1 22 -1 3 4 -32 6 -29 21 5 26
l27 4 -27 2 c-16 0 -28 6 -28 12 0 6 9 9 20 6 11 -3 18 -1 14 4 -8 14 -34 11
-40 -5z"/>
<path d="M9423 2055 c0 -22 2 -30 4 -17 2 12 2 30 0 40 -3 9 -5 -1 -4 -23z"/>
<path d="M9544 2076 c-11 -28 1 -51 26 -53 22 -1 22 -1 3 4 -32 6 -29 21 5 26
l27 4 -27 2 c-16 0 -28 6 -28 12 0 6 9 9 20 6 11 -3 18 -1 14 4 -8 14 -34 11
-40 -5z"/>
<path d="M9621 2053 c2 -35 2 -35 6 -8 3 16 10 33 16 37 8 5 6 8 -5 8 -14 0
-18 -8 -17 -37z"/>
<path d="M11551 2036 c1 -28 3 -43 6 -34 2 9 14 18 26 20 17 2 22 10 22 33 0
26 -4 30 -27 31 -27 1 -28 -1 -27 -50z m49 19 c0 -25 -23 -35 -35 -15 -10 16
2 40 20 40 9 0 15 -9 15 -25z"/>
<path d="M11640 2076 c-27 -33 18 -72 48 -42 13 13 14 20 6 34 -15 23 -38 26
-54 8z m48 -19 c4 -20 -25 -34 -40 -19 -15 15 -1 44 19 40 10 -2 19 -11 21
-21z"/>
<path d="M11724 2076 c-11 -28 1 -51 26 -53 22 -1 22 -1 3 4 -16 3 -23 12 -23
28 0 17 7 25 23 28 l22 4 -23 2 c-12 0 -25 -5 -28 -13z"/>
<path d="M11789 2074 c-16 -19 -1 -48 27 -51 15 -2 14 -1 -3 7 -13 5 -23 16
-23 25 0 9 10 20 23 25 15 6 17 9 6 9 -9 1 -22 -6 -30 -15z"/>
<path d="M11854 2076 c-11 -29 0 -51 26 -51 21 0 25 5 25 30 0 24 -5 31 -23
33 -13 2 -24 -3 -28 -12z m46 -21 c0 -25 -23 -35 -35 -15 -10 16 2 40 20 40 9
0 15 -9 15 -25z"/>
<path d="M11940 2055 c0 -32 3 -36 23 -33 17 2 22 10 22 33 0 23 -5 31 -22 33
-20 3 -23 -1 -23 -33z m40 15 c0 -5 -7 -10 -15 -10 -8 0 -15 5 -15 10 0 6 7
10 15 10 8 0 15 -4 15 -10z m0 -30 c0 -5 -7 -10 -15 -10 -8 0 -15 5 -15 10 0
6 7 10 15 10 8 0 15 -4 15 -10z"/>
<path d="M12020 2055 c0 -26 3 -35 9 -26 6 9 11 10 15 2 4 -6 12 -11 18 -11 6
0 4 8 -5 18 -15 17 -15 19 0 35 10 10 12 17 6 17 -7 0 -15 -5 -19 -11 -4 -8
-9 -7 -15 2 -6 9 -9 0 -9 -26z"/>
<path d="M12113 2064 c-13 -14 -23 -31 -23 -37 0 -7 9 -1 19 12 l19 25 5 -25
c3 -17 5 -13 6 14 0 20 0 37 -1 37 -2 0 -13 -12 -25 -26z"/>
<path d="M12323 2055 c0 -22 2 -30 4 -17 2 12 2 30 0 40 -3 9 -5 -1 -4 -23z"/>
<path d="M12424 2076 c-11 -28 1 -51 26 -53 22 -1 22 -1 3 4 -31 6 -29 23 3
23 20 0 25 4 20 16 -3 9 -6 18 -6 20 0 11 -41 2 -46 -10z m41 -6 c3 -5 -3 -10
-14 -10 -12 0 -21 5 -21 10 0 6 6 10 14 10 8 0 18 -4 21 -10z"/>
<path d="M12633 2055 c0 -22 2 -30 4 -17 2 12 2 30 0 40 -3 9 -5 -1 -4 -23z"/>
<path d="M12671 2053 c2 -35 2 -35 6 -8 3 16 10 33 16 37 8 5 6 8 -5 8 -14 0
-18 -8 -17 -37z"/>
<path d="M12830 2076 c-27 -33 18 -72 48 -42 13 13 14 20 6 34 -15 23 -38 26
-54 8z m48 -19 c4 -20 -25 -34 -40 -19 -15 15 -1 44 19 40 10 -2 19 -11 21
-21z"/>
<path d="M12911 2053 c1 -27 3 -31 6 -13 2 14 12 31 21 38 14 11 13 12 -6 12
-19 0 -22 -5 -21 -37z"/>
<path d="M12964 2076 c-11 -28 1 -51 26 -53 22 -1 22 -1 3 4 -16 3 -23 12 -23
28 0 17 7 25 23 28 l22 4 -23 2 c-12 0 -25 -5 -28 -13z"/>
<path d="M13031 2076 c-20 -24 -4 -56 27 -55 21 1 22 2 7 6 -34 8 -41 23 -11
23 21 0 27 4 24 17 -4 23 -31 28 -47 9z m39 -6 c0 -5 -9 -10 -21 -10 -11 0
-17 5 -14 10 3 6 13 10 21 10 8 0 14 -4 14 -10z"/>
<path d="M14871 2036 c1 -28 3 -43 6 -34 2 9 14 18 26 20 17 2 22 10 22 33 0
26 -4 30 -27 31 -27 1 -28 -1 -27 -50z m49 19 c0 -25 -23 -35 -35 -15 -10 16
2 40 20 40 9 0 15 -9 15 -25z"/>
<path d="M14960 2076 c-27 -33 18 -72 48 -42 13 13 14 20 6 34 -15 23 -38 26
-54 8z m48 -19 c4 -20 -25 -34 -40 -19 -15 15 -1 44 19 40 10 -2 19 -11 21
-21z"/>
<path d="M15044 2076 c-11 -28 1 -51 26 -53 22 -1 22 -1 3 4 -16 3 -23 12 -23
28 0 17 7 25 23 28 l22 4 -23 2 c-12 0 -25 -5 -28 -13z"/>
<path d="M15109 2074 c-16 -19 -1 -48 27 -51 15 -2 14 -1 -3 7 -13 5 -23 16
-23 25 0 9 10 20 23 25 15 6 17 9 6 9 -9 1 -22 -6 -30 -15z"/>
<path d="M15174 2076 c-11 -29 0 -51 26 -51 21 0 25 5 25 30 0 24 -5 31 -23
33 -13 2 -24 -3 -28 -12z m46 -21 c0 -25 -23 -35 -35 -15 -10 16 2 40 20 40 9
0 15 -9 15 -25z"/>
<path d="M15260 2055 c0 -32 3 -36 23 -33 17 2 22 10 22 33 0 23 -5 31 -22 33
-20 3 -23 -1 -23 -33z m40 15 c0 -5 -7 -10 -15 -10 -8 0 -15 5 -15 10 0 6 7
10 15 10 8 0 15 -4 15 -10z m0 -30 c0 -5 -7 -10 -15 -10 -8 0 -15 5 -15 10 0
6 7 10 15 10 8 0 15 -4 15 -10z"/>
<path d="M15340 2055 c0 -26 3 -35 9 -26 6 9 11 10 15 2 4 -6 12 -11 18 -11 6
0 4 8 -5 18 -15 17 -15 19 0 35 10 10 12 17 6 17 -7 0 -15 -5 -19 -11 -4 -8
-9 -7 -15 2 -6 9 -9 0 -9 -26z"/>
<path d="M15433 2064 c-13 -14 -23 -31 -23 -37 0 -7 9 -1 19 12 l19 25 5 -25
c3 -17 5 -13 6 14 0 20 0 37 -1 37 -2 0 -13 -12 -25 -26z"/>
<path d="M15643 2055 c0 -22 2 -30 4 -17 2 12 2 30 0 40 -3 9 -5 -1 -4 -23z"/>
<path d="M15744 2076 c-11 -28 1 -51 26 -53 22 -1 22 -1 3 4 -31 6 -29 23 3
23 20 0 25 4 20 16 -3 9 -6 18 -6 20 0 11 -41 2 -46 -10z m41 -6 c3 -5 -3 -10
-14 -10 -12 0 -21 5 -21 10 0 6 6 10 14 10 8 0 18 -4 21 -10z"/>
<path d="M15953 2055 c0 -22 2 -30 4 -17 2 12 2 30 0 40 -3 9 -5 -1 -4 -23z"/>
<path d="M15991 2053 c2 -35 2 -35 6 -8 3 16 10 33 16 37 8 5 6 8 -5 8 -14 0
-18 -8 -17 -37z"/>
<path d="M16223 2083 c23 -6 22 -19 -4 -26 -26 -7 -20 -31 9 -35 19 -3 22 1
22 32 0 31 -3 36 -22 35 -17 -1 -19 -2 -5 -6z m17 -43 c0 -5 -7 -10 -15 -10
-8 0 -15 5 -15 10 0 6 7 10 15 10 8 0 15 -4 15 -10z"/>
<path d="M16279 2072 c10 -19 10 -27 -1 -40 -12 -16 -11 -16 6 -2 15 11 20 12
23 3 3 -7 9 -13 15 -13 6 0 4 8 -5 18 -15 17 -15 19 0 35 10 9 12 17 6 17 -6
0 -13 -6 -16 -12 -3 -10 -8 -9 -22 2 -17 14 -18 14 -6 -8z"/>
<path d="M1930 1789 c-11 -8 -12 -12 -2 -16 6 -2 12 -20 12 -39 0 -19 5 -34
10 -34 6 0 10 23 10 50 0 52 -4 57 -30 39z"/>
<path d="M2010 1789 c-11 -8 -12 -12 -2 -16 6 -2 12 -20 12 -39 0 -24 5 -34
15 -34 11 0 15 12 15 50 0 51 -9 61 -40 39z"/>
<path d="M2087 1793 c-4 -3 -7 -17 -7 -30 0 -16 6 -23 20 -23 11 0 20 -4 20
-10 0 -5 -9 -10 -20 -10 -11 0 -20 -4 -20 -10 0 -11 20 -13 44 -4 23 9 20 45
-4 51 -11 3 -20 9 -20 14 0 5 9 9 20 9 11 0 20 5 20 10 0 11 -43 14 -53 3z"/>
<path d="M2172 1788 c-17 -17 -15 -63 3 -78 21 -17 43 -6 51 26 11 45 -25 81
-54 52z m33 -38 c0 -13 -6 -25 -12 -27 -9 -3 -13 6 -13 27 0 21 4 30 13 28 6
-3 12 -15 12 -28z"/>
<path d="M2252 1788 c-17 -17 -15 -63 4 -79 22 -18 48 0 52 35 6 45 -29 71
-56 44z m38 -32 c0 -14 -5 -28 -10 -31 -13 -8 -24 20 -16 40 9 24 26 17 26 -9z"/>
<path d="M5250 1789 c-11 -8 -12 -12 -2 -16 6 -2 12 -20 12 -39 0 -19 5 -34
10 -34 6 0 10 23 10 50 0 52 -4 57 -30 39z"/>
<path d="M5331 1786 c-7 -8 -11 -30 -9 -48 2 -28 7 -33 28 -33 35 0 41 41 8
55 l-23 9 23 7 c12 3 22 10 22 15 0 14 -36 10 -49 -5z m29 -56 c0 -5 -4 -10
-10 -10 -5 0 -10 5 -10 10 0 6 5 10 10 10 6 0 10 -4 10 -10z"/>
<path d="M5407 1794 c-16 -16 -6 -55 16 -64 l22 -9 -22 0 c-28 -1 -31 -21 -4
-21 27 0 43 24 39 62 -2 24 -8 34 -23 36 -12 2 -24 0 -28 -4z m33 -29 c0 -8
-4 -15 -10 -15 -5 0 -10 7 -10 15 0 8 5 15 10 15 6 0 10 -7 10 -15z"/>
<path d="M5491 1786 c-19 -22 -9 -51 16 -50 12 0 20 -3 17 -8 -3 -4 -12 -8
-20 -8 -8 0 -14 -5 -14 -11 0 -23 45 -3 54 24 17 47 -25 87 -53 53z m31 -21
c0 -5 -5 -11 -11 -13 -6 -2 -11 4 -11 13 0 9 5 15 11 13 6 -2 11 -8 11 -13z"/>
<path d="M5571 1786 c-18 -22 -4 -59 20 -53 10 3 17 1 13 -4 -3 -5 -12 -9 -20
-9 -8 0 -14 -5 -14 -11 0 -23 45 -3 54 24 17 47 -25 87 -53 53z m39 -21 c0 -8
-7 -15 -15 -15 -8 0 -15 7 -15 15 0 8 7 15 15 15 8 0 15 -7 15 -15z"/>
<path d="M8561 1786 c-18 -22 -4 -59 20 -53 10 3 17 1 13 -4 -3 -5 -12 -9 -20
-9 -8 0 -14 -5 -14 -11 0 -23 45 -3 54 24 17 47 -25 87 -53 53z m39 -21 c0 -8
-7 -15 -15 -15 -8 0 -15 7 -15 15 0 8 7 15 15 15 8 0 15 -7 15 -15z"/>
<path d="M8640 1770 c0 -23 4 -30 20 -30 11 0 20 -4 20 -10 0 -5 -9 -10 -20
-10 -11 0 -20 -4 -20 -10 0 -15 36 -12 50 5 15 18 6 45 -15 45 -8 0 -15 5 -15
10 0 6 7 10 15 10 8 0 15 5 15 10 0 6 -11 10 -25 10 -21 0 -25 -5 -25 -30z"/>
<path d="M8727 1793 c-4 -3 -7 -17 -7 -30 0 -16 6 -23 20 -23 11 0 20 -4 20
-10 0 -5 -9 -10 -20 -10 -11 0 -20 -4 -20 -10 0 -11 20 -13 44 -4 23 9 20 45
-4 51 -11 3 -20 9 -20 14 0 5 9 9 20 9 11 0 20 5 20 10 0 11 -43 14 -53 3z"/>
<path d="M8812 1788 c-17 -17 -15 -63 3 -78 21 -17 43 -6 51 26 11 45 -25 81
-54 52z m33 -38 c0 -13 -6 -25 -12 -27 -9 -3 -13 6 -13 27 0 21 4 30 13 28 6
-3 12 -15 12 -28z"/>
<path d="M11880 1770 c0 -20 5 -30 15 -30 8 0 15 -4 15 -10 0 -5 -7 -10 -15
-10 -8 0 -15 -4 -15 -10 0 -18 39 -11 49 9 11 20 3 32 -29 44 -11 4 -9 7 8 12
30 10 28 25 -3 25 -21 0 -25 -5 -25 -30z"/>
<path d="M11961 1782 c-11 -21 2 -45 29 -55 10 -4 7 -6 -7 -6 -28 -1 -31 -21
-4 -21 27 0 43 24 39 62 -2 25 -8 34 -25 36 -13 2 -26 -4 -32 -16z m39 -17 c0
-8 -4 -15 -10 -15 -5 0 -10 7 -10 15 0 8 5 15 10 15 6 0 10 -7 10 -15z"/>
<path d="M12044 1787 c-3 -8 -4 -30 -2 -49 2 -28 7 -33 28 -33 23 0 25 4 25
45 0 39 -3 45 -23 48 -13 2 -24 -3 -28 -11z m36 -37 c0 -16 -4 -30 -10 -30 -5
0 -10 14 -10 30 0 17 5 30 10 30 6 0 10 -13 10 -30z"/>
<path d="M12132 1788 c-17 -17 -15 -63 3 -78 21 -17 43 -6 51 26 11 45 -25 81
-54 52z m33 -38 c0 -13 -6 -25 -12 -27 -9 -3 -13 6 -13 27 0 21 4 30 13 28 6
-3 12 -15 12 -28z"/>
<path d="M15210 1789 c-11 -8 -12 -12 -2 -16 6 -2 12 -20 12 -39 0 -19 5 -34
10 -34 6 0 10 23 10 50 0 52 -4 57 -30 39z"/>
<path d="M15280 1770 c0 -23 4 -30 20 -30 11 0 20 -4 20 -10 0 -5 -9 -10 -20
-10 -11 0 -20 -4 -20 -10 0 -15 36 -12 50 5 15 18 6 45 -15 45 -8 0 -15 5 -15
10 0 6 7 10 15 10 8 0 15 5 15 10 0 6 -11 10 -25 10 -21 0 -25 -5 -25 -30z"/>
<path d="M15371 1786 c-7 -8 -11 -30 -9 -48 2 -25 8 -34 24 -36 45 -6 55 52
11 61 l-22 4 23 8 c12 4 22 11 22 16 0 14 -36 10 -49 -5z m29 -56 c0 -5 -4
-10 -10 -10 -5 0 -10 5 -10 10 0 6 5 10 10 10 6 0 10 -4 10 -10z"/>
<path d="M15452 1788 c-17 -17 -15 -63 3 -78 21 -17 43 -6 51 26 11 45 -25 81
-54 52z m33 -38 c0 -13 -6 -25 -12 -27 -9 -3 -13 6 -13 27 0 21 4 30 13 28 6
-3 12 -15 12 -28z"/>
<path d="M15532 1788 c-17 -17 -15 -63 4 -79 22 -18 48 0 52 35 6 45 -29 71
-56 44z m38 -32 c0 -14 -5 -28 -10 -31 -13 -8 -24 20 -16 40 9 24 26 17 26 -9z"/>
<path d="M6153 111 c-5 -3 -28 -27 -52 -53 -34 -38 -38 -45 -20 -41 15 4 20 3
15 -5 -5 -9 27 -12 125 -12 l132 0 -24 26 c-45 48 -153 101 -176 85z"/>
<path d="M6705 10 c-4 -6 12 -10 42 -9 36 0 43 3 28 9 -28 12 -63 12 -70 0z"/>
<path d="M16085 10 c-4 -7 7 -10 30 -8 47 3 57 18 11 18 -19 0 -38 -5 -41 -10z"/>
<path d="M16768 3 c12 -2 30 -2 40 0 9 3 -1 5 -23 4 -22 0 -30 -2 -17 -4z"/>
</g>
</svg>
